<svg width="1685" height="20" viewBox="0 0 1685 20" fill="none" xmlns="http://www.w3.org/2000/svg">
<rect width="1685" height="20" fill="white"/>
<mask id="mask0_2127_520" style="mask-type:alpha" maskUnits="userSpaceOnUse" x="0" y="0" width="1685" height="20">
<rect width="1685" height="20" fill="white"/>
</mask>
<g mask="url(#mask0_2127_520)">
<line x1="2.43309" y1="-2.75014" x2="-12.5669" y2="23.2499" stroke="black"/>
<line x1="10.4331" y1="-2.75014" x2="-4.56691" y2="23.2499" stroke="black"/>
<line x1="18.4331" y1="-2.75014" x2="3.43309" y2="23.2499" stroke="black"/>
<line x1="26.4331" y1="-2.75014" x2="11.4331" y2="23.2499" stroke="black"/>
<line x1="34.4331" y1="-2.75014" x2="19.4331" y2="23.2499" stroke="black"/>
<line x1="42.4331" y1="-2.75014" x2="27.4331" y2="23.2499" stroke="black"/>
<line x1="50.4331" y1="-2.75014" x2="35.4331" y2="23.2499" stroke="black"/>
<line x1="58.4331" y1="-2.75014" x2="43.4331" y2="23.2499" stroke="black"/>
<line x1="66.4331" y1="-2.75014" x2="51.4331" y2="23.2499" stroke="black"/>
<line x1="74.4331" y1="-2.75014" x2="59.4331" y2="23.2499" stroke="black"/>
<line x1="82.4331" y1="-2.75014" x2="67.4331" y2="23.2499" stroke="black"/>
<line x1="90.4331" y1="-2.75014" x2="75.4331" y2="23.2499" stroke="black"/>
<line x1="98.4331" y1="-2.75014" x2="83.4331" y2="23.2499" stroke="black"/>
<line x1="106.433" y1="-2.75014" x2="91.4331" y2="23.2499" stroke="black"/>
<line x1="114.433" y1="-2.75014" x2="99.4331" y2="23.2499" stroke="black"/>
<line x1="122.433" y1="-2.75014" x2="107.433" y2="23.2499" stroke="black"/>
<line x1="130.433" y1="-2.75014" x2="115.433" y2="23.2499" stroke="black"/>
<line x1="138.433" y1="-2.75014" x2="123.433" y2="23.2499" stroke="black"/>
<line x1="146.433" y1="-2.75014" x2="131.433" y2="23.2499" stroke="black"/>
<line x1="154.433" y1="-2.75014" x2="139.433" y2="23.2499" stroke="black"/>
<line x1="162.433" y1="-2.75014" x2="147.433" y2="23.2499" stroke="black"/>
<line x1="170.433" y1="-2.75014" x2="155.433" y2="23.2499" stroke="black"/>
<line x1="178.433" y1="-2.75014" x2="163.433" y2="23.2499" stroke="black"/>
<line x1="186.433" y1="-2.75014" x2="171.433" y2="23.2499" stroke="black"/>
<line x1="194.433" y1="-2.75014" x2="179.433" y2="23.2499" stroke="black"/>
<line x1="202.433" y1="-2.75014" x2="187.433" y2="23.2499" stroke="black"/>
<line x1="210.433" y1="-2.75014" x2="195.433" y2="23.2499" stroke="black"/>
<line x1="218.433" y1="-2.75014" x2="203.433" y2="23.2499" stroke="black"/>
<line x1="226.433" y1="-2.75014" x2="211.433" y2="23.2499" stroke="black"/>
<line x1="234.433" y1="-2.75014" x2="219.433" y2="23.2499" stroke="black"/>
<line x1="242.433" y1="-2.75014" x2="227.433" y2="23.2499" stroke="black"/>
<line x1="250.433" y1="-2.75014" x2="235.433" y2="23.2499" stroke="black"/>
<line x1="258.433" y1="-2.75014" x2="243.433" y2="23.2499" stroke="black"/>
<line x1="266.433" y1="-2.75014" x2="251.433" y2="23.2499" stroke="black"/>
<line x1="274.433" y1="-2.75014" x2="259.433" y2="23.2499" stroke="black"/>
<line x1="282.433" y1="-2.75014" x2="267.433" y2="23.2499" stroke="black"/>
<line x1="290.433" y1="-2.75014" x2="275.433" y2="23.2499" stroke="black"/>
<line x1="298.433" y1="-2.75014" x2="283.433" y2="23.2499" stroke="black"/>
<line x1="306.433" y1="-2.75014" x2="291.433" y2="23.2499" stroke="black"/>
<line x1="314.433" y1="-2.75014" x2="299.433" y2="23.2499" stroke="black"/>
<line x1="322.433" y1="-2.75014" x2="307.433" y2="23.2499" stroke="black"/>
<line x1="330.433" y1="-2.75014" x2="315.433" y2="23.2499" stroke="black"/>
<line x1="338.433" y1="-2.75014" x2="323.433" y2="23.2499" stroke="black"/>
<line x1="346.433" y1="-2.75014" x2="331.433" y2="23.2499" stroke="black"/>
<line x1="354.433" y1="-2.75014" x2="339.433" y2="23.2499" stroke="black"/>
<line x1="362.433" y1="-2.75014" x2="347.433" y2="23.2499" stroke="black"/>
<line x1="370.433" y1="-2.75014" x2="355.433" y2="23.2499" stroke="black"/>
<line x1="378.433" y1="-2.75014" x2="363.433" y2="23.2499" stroke="black"/>
<line x1="386.433" y1="-2.75014" x2="371.433" y2="23.2499" stroke="black"/>
<line x1="394.433" y1="-2.75014" x2="379.433" y2="23.2499" stroke="black"/>
<line x1="402.433" y1="-2.75014" x2="387.433" y2="23.2499" stroke="black"/>
<line x1="410.433" y1="-2.75014" x2="395.433" y2="23.2499" stroke="black"/>
<line x1="418.433" y1="-2.75014" x2="403.433" y2="23.2499" stroke="black"/>
<line x1="426.433" y1="-2.75014" x2="411.433" y2="23.2499" stroke="black"/>
<line x1="434.433" y1="-2.75014" x2="419.433" y2="23.2499" stroke="black"/>
<line x1="442.433" y1="-2.75014" x2="427.433" y2="23.2499" stroke="black"/>
<line x1="450.433" y1="-2.75014" x2="435.433" y2="23.2499" stroke="black"/>
<line x1="458.433" y1="-2.75014" x2="443.433" y2="23.2499" stroke="black"/>
<line x1="466.433" y1="-2.75014" x2="451.433" y2="23.2499" stroke="black"/>
<line x1="474.433" y1="-2.75014" x2="459.433" y2="23.2499" stroke="black"/>
<line x1="482.433" y1="-2.75014" x2="467.433" y2="23.2499" stroke="black"/>
<line x1="490.433" y1="-2.75014" x2="475.433" y2="23.2499" stroke="black"/>
<line x1="498.433" y1="-2.75014" x2="483.433" y2="23.2499" stroke="black"/>
<line x1="506.433" y1="-2.75014" x2="491.433" y2="23.2499" stroke="black"/>
<line x1="514.433" y1="-2.75014" x2="499.433" y2="23.2499" stroke="black"/>
<line x1="522.433" y1="-2.75014" x2="507.433" y2="23.2499" stroke="black"/>
<line x1="530.433" y1="-2.75014" x2="515.433" y2="23.2499" stroke="black"/>
<line x1="538.433" y1="-2.75014" x2="523.433" y2="23.2499" stroke="black"/>
<line x1="546.433" y1="-2.75014" x2="531.433" y2="23.2499" stroke="black"/>
<line x1="554.433" y1="-2.75014" x2="539.433" y2="23.2499" stroke="black"/>
<line x1="562.433" y1="-2.75014" x2="547.433" y2="23.2499" stroke="black"/>
<line x1="570.433" y1="-2.75014" x2="555.433" y2="23.2499" stroke="black"/>
<line x1="578.433" y1="-2.75014" x2="563.433" y2="23.2499" stroke="black"/>
<line x1="586.433" y1="-2.75014" x2="571.433" y2="23.2499" stroke="black"/>
<line x1="594.433" y1="-2.75014" x2="579.433" y2="23.2499" stroke="black"/>
<line x1="602.433" y1="-2.75014" x2="587.433" y2="23.2499" stroke="black"/>
<line x1="610.433" y1="-2.75014" x2="595.433" y2="23.2499" stroke="black"/>
<line x1="618.433" y1="-2.75014" x2="603.433" y2="23.2499" stroke="black"/>
<line x1="626.433" y1="-2.75014" x2="611.433" y2="23.2499" stroke="black"/>
<line x1="634.433" y1="-2.75014" x2="619.433" y2="23.2499" stroke="black"/>
<line x1="642.433" y1="-2.75014" x2="627.433" y2="23.2499" stroke="black"/>
<line x1="650.433" y1="-2.75014" x2="635.433" y2="23.2499" stroke="black"/>
<line x1="658.433" y1="-2.75014" x2="643.433" y2="23.2499" stroke="black"/>
<line x1="666.433" y1="-2.75014" x2="651.433" y2="23.2499" stroke="black"/>
<line x1="674.433" y1="-2.75014" x2="659.433" y2="23.2499" stroke="black"/>
<line x1="682.433" y1="-2.75014" x2="667.433" y2="23.2499" stroke="black"/>
<line x1="690.433" y1="-2.75014" x2="675.433" y2="23.2499" stroke="black"/>
<line x1="698.433" y1="-2.75014" x2="683.433" y2="23.2499" stroke="black"/>
<line x1="706.433" y1="-2.75014" x2="691.433" y2="23.2499" stroke="black"/>
<line x1="714.433" y1="-2.75014" x2="699.433" y2="23.2499" stroke="black"/>
<line x1="722.433" y1="-2.75014" x2="707.433" y2="23.2499" stroke="black"/>
<line x1="730.433" y1="-2.75014" x2="715.433" y2="23.2499" stroke="black"/>
<line x1="738.433" y1="-2.75014" x2="723.433" y2="23.2499" stroke="black"/>
<line x1="746.433" y1="-2.75014" x2="731.433" y2="23.2499" stroke="black"/>
<line x1="754.433" y1="-2.75014" x2="739.433" y2="23.2499" stroke="black"/>
<line x1="762.433" y1="-2.75014" x2="747.433" y2="23.2499" stroke="black"/>
<line x1="770.433" y1="-2.75014" x2="755.433" y2="23.2499" stroke="black"/>
<line x1="778.433" y1="-2.75014" x2="763.433" y2="23.2499" stroke="black"/>
<line x1="786.433" y1="-2.75014" x2="771.433" y2="23.2499" stroke="black"/>
<line x1="794.433" y1="-2.75014" x2="779.433" y2="23.2499" stroke="black"/>
<line x1="802.433" y1="-2.75014" x2="787.433" y2="23.2499" stroke="black"/>
<line x1="810.433" y1="-2.75014" x2="795.433" y2="23.2499" stroke="black"/>
<line x1="818.433" y1="-2.75014" x2="803.433" y2="23.2499" stroke="black"/>
<line x1="826.433" y1="-2.75014" x2="811.433" y2="23.2499" stroke="black"/>
<line x1="834.433" y1="-2.75014" x2="819.433" y2="23.2499" stroke="black"/>
<line x1="842.433" y1="-2.75014" x2="827.433" y2="23.2499" stroke="black"/>
<line x1="850.433" y1="-2.75014" x2="835.433" y2="23.2499" stroke="black"/>
<line x1="858.433" y1="-2.75014" x2="843.433" y2="23.2499" stroke="black"/>
<line x1="866.433" y1="-2.75014" x2="851.433" y2="23.2499" stroke="black"/>
<line x1="874.433" y1="-2.75014" x2="859.433" y2="23.2499" stroke="black"/>
<line x1="882.433" y1="-2.75014" x2="867.433" y2="23.2499" stroke="black"/>
<line x1="890.433" y1="-2.75014" x2="875.433" y2="23.2499" stroke="black"/>
<line x1="898.433" y1="-2.75014" x2="883.433" y2="23.2499" stroke="black"/>
<line x1="906.433" y1="-2.75014" x2="891.433" y2="23.2499" stroke="black"/>
<line x1="914.433" y1="-2.75014" x2="899.433" y2="23.2499" stroke="black"/>
<line x1="922.433" y1="-2.75014" x2="907.433" y2="23.2499" stroke="black"/>
<line x1="930.433" y1="-2.75014" x2="915.433" y2="23.2499" stroke="black"/>
<line x1="938.433" y1="-2.75014" x2="923.433" y2="23.2499" stroke="black"/>
<line x1="946.433" y1="-2.75014" x2="931.433" y2="23.2499" stroke="black"/>
<line x1="954.433" y1="-2.75014" x2="939.433" y2="23.2499" stroke="black"/>
<line x1="962.433" y1="-2.75014" x2="947.433" y2="23.2499" stroke="black"/>
<line x1="970.433" y1="-2.75014" x2="955.433" y2="23.2499" stroke="black"/>
<line x1="978.433" y1="-2.75014" x2="963.433" y2="23.2499" stroke="black"/>
<line x1="986.433" y1="-2.75014" x2="971.433" y2="23.2499" stroke="black"/>
<line x1="994.433" y1="-2.75014" x2="979.433" y2="23.2499" stroke="black"/>
<line x1="1002.43" y1="-2.75014" x2="987.433" y2="23.2499" stroke="black"/>
<line x1="1010.43" y1="-2.75014" x2="995.433" y2="23.2499" stroke="black"/>
<line x1="1018.43" y1="-2.75014" x2="1003.43" y2="23.2499" stroke="black"/>
<line x1="1026.43" y1="-2.75014" x2="1011.43" y2="23.2499" stroke="black"/>
<line x1="1034.43" y1="-2.75014" x2="1019.43" y2="23.2499" stroke="black"/>
<line x1="1042.43" y1="-2.75014" x2="1027.43" y2="23.2499" stroke="black"/>
<line x1="1050.43" y1="-2.75014" x2="1035.43" y2="23.2499" stroke="black"/>
<line x1="1058.43" y1="-2.75014" x2="1043.43" y2="23.2499" stroke="black"/>
<line x1="1066.43" y1="-2.75014" x2="1051.43" y2="23.2499" stroke="black"/>
<line x1="1074.43" y1="-2.75014" x2="1059.43" y2="23.2499" stroke="black"/>
<line x1="1082.43" y1="-2.75014" x2="1067.43" y2="23.2499" stroke="black"/>
<line x1="1090.43" y1="-2.75014" x2="1075.43" y2="23.2499" stroke="black"/>
<line x1="1098.43" y1="-2.75014" x2="1083.43" y2="23.2499" stroke="black"/>
<line x1="1106.43" y1="-2.75014" x2="1091.43" y2="23.2499" stroke="black"/>
<line x1="1114.43" y1="-2.75014" x2="1099.43" y2="23.2499" stroke="black"/>
<line x1="1122.43" y1="-2.75014" x2="1107.43" y2="23.2499" stroke="black"/>
<line x1="1130.43" y1="-2.75014" x2="1115.43" y2="23.2499" stroke="black"/>
<line x1="1138.43" y1="-2.75014" x2="1123.43" y2="23.2499" stroke="black"/>
<line x1="1146.43" y1="-2.75014" x2="1131.43" y2="23.2499" stroke="black"/>
<line x1="1154.43" y1="-2.75014" x2="1139.43" y2="23.2499" stroke="black"/>
<line x1="1162.43" y1="-2.75014" x2="1147.43" y2="23.2499" stroke="black"/>
<line x1="1170.43" y1="-2.75014" x2="1155.43" y2="23.2499" stroke="black"/>
<line x1="1178.43" y1="-2.75014" x2="1163.43" y2="23.2499" stroke="black"/>
<line x1="1186.43" y1="-2.75014" x2="1171.43" y2="23.2499" stroke="black"/>
<line x1="1194.43" y1="-2.75014" x2="1179.43" y2="23.2499" stroke="black"/>
<line x1="1202.43" y1="-2.75014" x2="1187.43" y2="23.2499" stroke="black"/>
<line x1="1210.43" y1="-2.75014" x2="1195.43" y2="23.2499" stroke="black"/>
<line x1="1218.43" y1="-2.75014" x2="1203.43" y2="23.2499" stroke="black"/>
<line x1="1226.43" y1="-2.75014" x2="1211.43" y2="23.2499" stroke="black"/>
<line x1="1234.43" y1="-2.75014" x2="1219.43" y2="23.2499" stroke="black"/>
<line x1="1242.43" y1="-2.75014" x2="1227.43" y2="23.2499" stroke="black"/>
<line x1="1250.43" y1="-2.75014" x2="1235.43" y2="23.2499" stroke="black"/>
<line x1="1258.43" y1="-2.75014" x2="1243.43" y2="23.2499" stroke="black"/>
<line x1="1266.43" y1="-2.75014" x2="1251.43" y2="23.2499" stroke="black"/>
<line x1="1274.43" y1="-2.75014" x2="1259.43" y2="23.2499" stroke="black"/>
<line x1="1282.43" y1="-2.75014" x2="1267.43" y2="23.2499" stroke="black"/>
<line x1="1290.43" y1="-2.75014" x2="1275.43" y2="23.2499" stroke="black"/>
<line x1="1298.43" y1="-2.75014" x2="1283.43" y2="23.2499" stroke="black"/>
<line x1="1306.43" y1="-2.75014" x2="1291.43" y2="23.2499" stroke="black"/>
<line x1="1314.43" y1="-2.75014" x2="1299.43" y2="23.2499" stroke="black"/>
<line x1="1322.43" y1="-2.75014" x2="1307.43" y2="23.2499" stroke="black"/>
<line x1="1330.43" y1="-2.75014" x2="1315.43" y2="23.2499" stroke="black"/>
<line x1="1338.43" y1="-2.75014" x2="1323.43" y2="23.2499" stroke="black"/>
<line x1="1346.43" y1="-2.75014" x2="1331.43" y2="23.2499" stroke="black"/>
<line x1="1354.43" y1="-2.75014" x2="1339.43" y2="23.2499" stroke="black"/>
<line x1="1362.43" y1="-2.75014" x2="1347.43" y2="23.2499" stroke="black"/>
<line x1="1370.43" y1="-2.75014" x2="1355.43" y2="23.2499" stroke="black"/>
<line x1="1378.43" y1="-2.75014" x2="1363.43" y2="23.2499" stroke="black"/>
<line x1="1386.43" y1="-2.75014" x2="1371.43" y2="23.2499" stroke="black"/>
<line x1="1394.43" y1="-2.75014" x2="1379.43" y2="23.2499" stroke="black"/>
<line x1="1402.43" y1="-2.75014" x2="1387.43" y2="23.2499" stroke="black"/>
<line x1="1410.43" y1="-2.75014" x2="1395.43" y2="23.2499" stroke="black"/>
<line x1="1418.43" y1="-2.75014" x2="1403.43" y2="23.2499" stroke="black"/>
<line x1="1426.43" y1="-2.75014" x2="1411.43" y2="23.2499" stroke="black"/>
<line x1="1434.43" y1="-2.75014" x2="1419.43" y2="23.2499" stroke="black"/>
<line x1="1442.43" y1="-2.75014" x2="1427.43" y2="23.2499" stroke="black"/>
<line x1="1450.43" y1="-2.75014" x2="1435.43" y2="23.2499" stroke="black"/>
<line x1="1458.43" y1="-2.75014" x2="1443.43" y2="23.2499" stroke="black"/>
<line x1="1466.43" y1="-2.75014" x2="1451.43" y2="23.2499" stroke="black"/>
<line x1="1474.43" y1="-2.75014" x2="1459.43" y2="23.2499" stroke="black"/>
<line x1="1482.43" y1="-2.75014" x2="1467.43" y2="23.2499" stroke="black"/>
<line x1="1490.43" y1="-2.75014" x2="1475.43" y2="23.2499" stroke="black"/>
<line x1="1498.43" y1="-2.75014" x2="1483.43" y2="23.2499" stroke="black"/>
<line x1="1506.43" y1="-2.75014" x2="1491.43" y2="23.2499" stroke="black"/>
<line x1="1514.43" y1="-2.75014" x2="1499.43" y2="23.2499" stroke="black"/>
<line x1="1522.43" y1="-2.75014" x2="1507.43" y2="23.2499" stroke="black"/>
<line x1="1530.43" y1="-2.75014" x2="1515.43" y2="23.2499" stroke="black"/>
<line x1="1538.43" y1="-2.75014" x2="1523.43" y2="23.2499" stroke="black"/>
<line x1="1546.43" y1="-2.75014" x2="1531.43" y2="23.2499" stroke="black"/>
<line x1="1554.43" y1="-2.75014" x2="1539.43" y2="23.2499" stroke="black"/>
<line x1="1562.43" y1="-2.75014" x2="1547.43" y2="23.2499" stroke="black"/>
<line x1="1570.43" y1="-2.75014" x2="1555.43" y2="23.2499" stroke="black"/>
<line x1="1578.43" y1="-2.75014" x2="1563.43" y2="23.2499" stroke="black"/>
<line x1="1586.43" y1="-2.75014" x2="1571.43" y2="23.2499" stroke="black"/>
<line x1="1594.43" y1="-2.75014" x2="1579.43" y2="23.2499" stroke="black"/>
<line x1="1602.43" y1="-2.75014" x2="1587.43" y2="23.2499" stroke="black"/>
<line x1="1610.43" y1="-2.75014" x2="1595.43" y2="23.2499" stroke="black"/>
<line x1="1618.43" y1="-2.75014" x2="1603.43" y2="23.2499" stroke="black"/>
<line x1="1626.43" y1="-2.75014" x2="1611.43" y2="23.2499" stroke="black"/>
<line x1="1634.43" y1="-2.75014" x2="1619.43" y2="23.2499" stroke="black"/>
<line x1="1642.43" y1="-2.75014" x2="1627.43" y2="23.2499" stroke="black"/>
<line x1="1650.43" y1="-2.75014" x2="1635.43" y2="23.2499" stroke="black"/>
<line x1="1658.43" y1="-2.75014" x2="1643.43" y2="23.2499" stroke="black"/>
<line x1="1666.43" y1="-2.75014" x2="1651.43" y2="23.2499" stroke="black"/>
<line x1="1674.43" y1="-2.75014" x2="1659.43" y2="23.2499" stroke="black"/>
<line x1="1682.43" y1="-2.75014" x2="1667.43" y2="23.2499" stroke="black"/>
<line x1="1690.43" y1="-2.75014" x2="1675.43" y2="23.2499" stroke="black"/>
<line x1="1698.43" y1="-2.75014" x2="1683.43" y2="23.2499" stroke="black"/>
</g>
</svg>
