<svg width="171" height="51" viewBox="0 0 171 51" fill="none" xmlns="http://www.w3.org/2000/svg">
<path d="M11.616 9.672L15.728 13H12.704L8.624 9.736H3.024V13H0.8V1.8H10.944C13.136 1.8 15.152 3.576 15.152 5.768C15.152 7.736 13.536 9.368 11.616 9.672ZM3.024 7.752H10.832C11.936 7.752 12.928 6.856 12.928 5.768C12.928 4.664 11.936 3.784 10.832 3.784H3.024V7.752ZM30.7535 13L29.1215 10.44H20.0175L18.3855 13H15.8255L22.9455 1.8H26.2095L33.3295 13H30.7535ZM21.3615 8.328H27.7935L24.5775 3.272L21.3615 8.328ZM44.1628 1.8C46.3548 1.8 48.3708 3.576 48.3708 5.768C48.3708 7.96 46.3548 9.736 44.1628 9.736H36.2428V13H34.0188V1.8H44.1628ZM44.0508 7.752C45.1548 7.752 46.1468 6.856 46.1468 5.768C46.1468 4.664 45.1548 3.784 44.0508 3.784H36.2428V7.752H44.0508ZM63.2981 1.8V3.896H57.0581V13H54.8341V3.896H48.5941V1.8H63.2981ZM71.1421 1.56C75.2061 1.56 78.8381 3.048 78.8381 7.112V7.688C78.8381 11.752 75.2061 13.24 71.1421 13.24C67.0941 13.24 63.4461 11.752 63.4461 7.688V7.112C63.4461 3.048 67.0941 1.56 71.1421 1.56ZM76.6301 7.64V7.16C76.6301 4.136 73.9421 3.672 71.1421 3.672C68.3421 3.672 65.6701 4.136 65.6701 7.16V7.64C65.6701 10.664 68.3421 11.128 71.1421 11.128C73.9421 11.128 76.6301 10.664 76.6301 7.64ZM90.8348 9.672L94.9468 13H91.9228L87.8428 9.736H82.2428V13H80.0188V1.8H90.1628C92.3548 1.8 94.3708 3.576 94.3708 5.768C94.3708 7.736 92.7548 9.368 90.8348 9.672ZM82.2428 7.752H90.0508C91.1548 7.752 92.1468 6.856 92.1468 5.768C92.1468 4.664 91.1548 3.784 90.0508 3.784H82.2428V7.752ZM116.741 8.44H103.445V6.344H116.741V8.44ZM141.157 13H137.893L133.109 8.744L128.325 13H125.061L131.477 7.304L125.301 1.8H128.565L133.109 5.848L137.669 1.8H140.933L134.741 7.304L141.157 13ZM148.725 6.248C151.861 6.664 155.477 6.696 155.477 9.72C155.477 13.224 151.429 13.352 147.573 13.192C146.165 13.128 142.981 12.84 141.861 12.68V10.472C142.917 10.712 146.165 11.032 147.573 11.096C149.541 11.176 153.269 11.304 153.189 9.72C153.141 8.84 150.389 8.68 148.261 8.408C145.141 7.992 141.525 8.088 141.525 5.064C141.525 1.56 145.573 1.432 149.429 1.592C150.821 1.656 153.781 1.944 154.901 2.104V4.312C153.845 4.072 150.821 3.752 149.429 3.688C147.461 3.608 143.701 3.48 143.813 5.064C143.813 5.88 146.597 5.96 148.725 6.248Z" fill="black"/>
<path d="M0.72 36V33.42H5.54V48H2.66V36H0.72Z" fill="#6C6C6C"/>
<path d="M34.4115 37.26C34.4782 35.9267 34.9449 34.9 35.8115 34.18C36.6915 33.4467 37.8449 33.08 39.2715 33.08C40.2449 33.08 41.0782 33.2533 41.7715 33.6C42.4649 33.9333 42.9849 34.3933 43.3315 34.98C43.6915 35.5533 43.8715 36.2067 43.8715 36.94C43.8715 37.78 43.6515 38.4933 43.2115 39.08C42.7849 39.6533 42.2715 40.04 41.6715 40.24V40.32C42.4449 40.56 43.0449 40.9867 43.4715 41.6C43.9115 42.2133 44.1315 43 44.1315 43.96C44.1315 44.76 43.9449 45.4733 43.5715 46.1C43.2115 46.7267 42.6715 47.22 41.9515 47.58C41.2449 47.9267 40.3915 48.1 39.3915 48.1C37.8849 48.1 36.6582 47.72 35.7115 46.96C34.7649 46.2 34.2649 45.08 34.2115 43.6H36.9315C36.9582 44.2533 37.1782 44.78 37.5915 45.18C38.0182 45.5667 38.5982 45.76 39.3315 45.76C40.0115 45.76 40.5315 45.5733 40.8915 45.2C41.2649 44.8133 41.4515 44.32 41.4515 43.72C41.4515 42.92 41.1982 42.3467 40.6915 42C40.1849 41.6533 39.3982 41.48 38.3315 41.48H37.7515V39.18H38.3315C40.2249 39.18 41.1715 38.5467 41.1715 37.28C41.1715 36.7067 40.9982 36.26 40.6515 35.94C40.3182 35.62 39.8315 35.46 39.1915 35.46C38.5649 35.46 38.0782 35.6333 37.7315 35.98C37.3982 36.3133 37.2049 36.74 37.1515 37.26H34.4115ZM54.3498 43.9C54.4565 44.4867 54.6965 44.94 55.0698 45.26C55.4565 45.5667 55.9698 45.72 56.6098 45.72C57.4365 45.72 58.0365 45.38 58.4098 44.7C58.7831 44.0067 58.9698 42.8467 58.9698 41.22C58.6631 41.6467 58.2298 41.98 57.6698 42.22C57.1231 42.46 56.5298 42.58 55.8898 42.58C55.0365 42.58 54.2631 42.4067 53.5698 42.06C52.8898 41.7 52.3498 41.1733 51.9498 40.48C51.5498 39.7733 51.3498 38.92 51.3498 37.92C51.3498 36.44 51.7898 35.2667 52.6698 34.4C53.5498 33.52 54.7498 33.08 56.2698 33.08C58.1631 33.08 59.4965 33.6867 60.2698 34.9C61.0565 36.1133 61.4498 37.94 61.4498 40.38C61.4498 42.1133 61.2965 43.5333 60.9898 44.64C60.6965 45.7467 60.1831 46.5867 59.4498 47.16C58.7298 47.7333 57.7431 48.02 56.4898 48.02C55.5031 48.02 54.6631 47.8333 53.9698 47.46C53.2765 47.0733 52.7431 46.5733 52.3698 45.96C52.0098 45.3333 51.8031 44.6467 51.7498 43.9H54.3498ZM56.4698 40.3C57.1631 40.3 57.7098 40.0867 58.1098 39.66C58.5098 39.2333 58.7098 38.66 58.7098 37.94C58.7098 37.1533 58.4965 36.5467 58.0698 36.12C57.6565 35.68 57.0898 35.46 56.3698 35.46C55.6498 35.46 55.0765 35.6867 54.6498 36.14C54.2365 36.58 54.0298 37.1667 54.0298 37.9C54.0298 38.6067 54.2298 39.1867 54.6298 39.64C55.0431 40.08 55.6565 40.3 56.4698 40.3ZM66.8693 43.9C66.976 44.4867 67.216 44.94 67.5893 45.26C67.976 45.5667 68.4893 45.72 69.1293 45.72C69.956 45.72 70.556 45.38 70.9293 44.7C71.3027 44.0067 71.4893 42.8467 71.4893 41.22C71.1827 41.6467 70.7493 41.98 70.1893 42.22C69.6427 42.46 69.0493 42.58 68.4093 42.58C67.556 42.58 66.7827 42.4067 66.0893 42.06C65.4093 41.7 64.8693 41.1733 64.4693 40.48C64.0693 39.7733 63.8693 38.92 63.8693 37.92C63.8693 36.44 64.3093 35.2667 65.1893 34.4C66.0693 33.52 67.2693 33.08 68.7893 33.08C70.6827 33.08 72.016 33.6867 72.7893 34.9C73.576 36.1133 73.9693 37.94 73.9693 40.38C73.9693 42.1133 73.816 43.5333 73.5093 44.64C73.216 45.7467 72.7027 46.5867 71.9693 47.16C71.2493 47.7333 70.2627 48.02 69.0093 48.02C68.0227 48.02 67.1827 47.8333 66.4893 47.46C65.796 47.0733 65.2627 46.5733 64.8893 45.96C64.5293 45.3333 64.3227 44.6467 64.2693 43.9H66.8693ZM68.9893 40.3C69.6827 40.3 70.2293 40.0867 70.6293 39.66C71.0293 39.2333 71.2293 38.66 71.2293 37.94C71.2293 37.1533 71.016 36.5467 70.5893 36.12C70.176 35.68 69.6093 35.46 68.8893 35.46C68.1693 35.46 67.596 35.6867 67.1693 36.14C66.756 36.58 66.5493 37.1667 66.5493 37.9C66.5493 38.6067 66.7493 39.1867 67.1493 39.64C67.5627 40.08 68.176 40.3 68.9893 40.3ZM79.3889 43.9C79.4955 44.4867 79.7355 44.94 80.1089 45.26C80.4955 45.5667 81.0089 45.72 81.6489 45.72C82.4755 45.72 83.0755 45.38 83.4489 44.7C83.8222 44.0067 84.0089 42.8467 84.0089 41.22C83.7022 41.6467 83.2689 41.98 82.7089 42.22C82.1622 42.46 81.5689 42.58 80.9289 42.58C80.0755 42.58 79.3022 42.4067 78.6089 42.06C77.9289 41.7 77.3889 41.1733 76.9889 40.48C76.5889 39.7733 76.3889 38.92 76.3889 37.92C76.3889 36.44 76.8289 35.2667 77.7089 34.4C78.5889 33.52 79.7889 33.08 81.3089 33.08C83.2022 33.08 84.5355 33.6867 85.3089 34.9C86.0955 36.1133 86.4889 37.94 86.4889 40.38C86.4889 42.1133 86.3355 43.5333 86.0289 44.64C85.7355 45.7467 85.2222 46.5867 84.4889 47.16C83.7689 47.7333 82.7822 48.02 81.5289 48.02C80.5422 48.02 79.7022 47.8333 79.0089 47.46C78.3155 47.0733 77.7822 46.5733 77.4089 45.96C77.0489 45.3333 76.8422 44.6467 76.7889 43.9H79.3889ZM81.5089 40.3C82.2022 40.3 82.7489 40.0867 83.1489 39.66C83.5489 39.2333 83.7489 38.66 83.7489 37.94C83.7489 37.1533 83.5355 36.5467 83.1089 36.12C82.6955 35.68 82.1289 35.46 81.4089 35.46C80.6889 35.46 80.1155 35.6867 79.6889 36.14C79.2755 36.58 79.0689 37.1667 79.0689 37.9C79.0689 38.6067 79.2689 39.1867 79.6689 39.64C80.0822 40.08 80.6955 40.3 81.5089 40.3ZM98.9484 43.98C98.9484 44.6733 98.7684 45.3267 98.4084 45.94C98.0617 46.54 97.5417 47.04 96.8484 47.44C96.1684 47.8267 95.3617 48.0533 94.4284 48.12V49.74H93.1484V48.1C91.8151 47.98 90.7417 47.58 89.9284 46.9C89.1151 46.2067 88.6951 45.2733 88.6684 44.1H91.6684C91.7484 45.06 92.2417 45.64 93.1484 45.84V42.02C92.1884 41.78 91.4151 41.54 90.8284 41.3C90.2417 41.06 89.7351 40.6733 89.3084 40.14C88.8817 39.6067 88.6684 38.88 88.6684 37.96C88.6684 36.8 89.0817 35.8533 89.9084 35.12C90.7484 34.3867 91.8284 33.9667 93.1484 33.86V32.24H94.4284V33.86C95.7084 33.9667 96.7284 34.3533 97.4884 35.02C98.2617 35.6867 98.6951 36.6067 98.7884 37.78H95.7684C95.7284 37.3933 95.5884 37.06 95.3484 36.78C95.1217 36.4867 94.8151 36.28 94.4284 36.16V39.94C95.4284 40.1933 96.2151 40.44 96.7884 40.68C97.3751 40.9067 97.8817 41.2867 98.3084 41.82C98.7351 42.34 98.9484 43.06 98.9484 43.98ZM91.5884 37.82C91.5884 38.26 91.7217 38.62 91.9884 38.9C92.2551 39.1667 92.6417 39.3867 93.1484 39.56V36.1C92.6684 36.1667 92.2884 36.3467 92.0084 36.64C91.7284 36.9333 91.5884 37.3267 91.5884 37.82ZM94.4284 45.88C94.9351 45.7867 95.3284 45.58 95.6084 45.26C95.9017 44.94 96.0484 44.5533 96.0484 44.1C96.0484 43.66 95.9084 43.3067 95.6284 43.04C95.3484 42.7733 94.9484 42.5533 94.4284 42.38V45.88Z" fill="#6C6C6C"/>
<rect x="19" y="42.3679" width="5.0728" height="0.893921" transform="rotate(-45 19 42.3679)" fill="#6C6C6C"/>
<rect x="19.7246" y="38.7445" width="5.0728" height="0.893921" transform="rotate(45 19.7246 38.7445)" fill="#6C6C6C"/>
<path d="M161 50C165.971 50 170 45.9706 170 41C170 36.0294 165.971 32 161 32C156.029 32 152 36.0294 152 41C152 45.9706 156.029 50 161 50Z" stroke="#6C6C6C" strokeWidth="0.5" stroke-miterlimit="10"/>
<path d="M156.746 36.7461L165.261 45.2609" stroke="#6C6C6C" strokeWidth="0.5" stroke-miterlimit="10"/>
<path d="M156.746 45.2609L165.261 36.7461" stroke="#6C6C6C" strokeWidth="0.5" stroke-miterlimit="10"/>
</svg>
