<svg width="24" height="21" viewBox="0 0 24 21" fill="none" xmlns="http://www.w3.org/2000/svg">
<path fill-rule="evenodd" clip-rule="evenodd" d="M14.6504 8.6687V6.6673C14.6612 6.34994 14.6078 6.03365 14.4936 5.73738C14.3793 5.4411 14.2064 5.17091 13.9854 4.94297C13.7643 4.71503 13.4995 4.53401 13.2068 4.41075C12.9142 4.28749 12.5996 4.22452 12.2821 4.2256H5.88428C5.56673 4.22452 5.25226 4.28749 4.9596 4.41075C4.66695 4.53401 4.40216 4.71503 4.18107 4.94297C3.95997 5.17091 3.78709 5.4411 3.67282 5.73738C3.55854 6.03365 3.5052 6.34994 3.51597 6.6673V8.6687H1.00755C0.874832 8.66506 0.742763 8.68841 0.619337 8.73732C0.495911 8.78624 0.383708 8.8597 0.289517 8.95326C0.195327 9.04683 0.121122 9.15855 0.071388 9.28165C0.0216539 9.40474 -0.00254742 9.53666 0.000212013 9.6694V11.9643C-0.00251317 12.0974 0.0216462 12.2296 0.0713065 12.353C0.120967 12.4765 0.1951 12.5886 0.289191 12.6827C0.383283 12.7768 0.495397 12.8509 0.618848 12.9006C0.7423 12.9502 0.87451 12.9744 1.00755 12.9717H1.29445L2.44858 19.2094C2.48119 19.4504 2.60106 19.6711 2.78548 19.8297C2.9699 19.9883 3.20607 20.0738 3.44927 20.07H14.7171C14.9604 20.0712 15.1959 19.9849 15.3808 19.827C15.5657 19.669 15.6877 19.4498 15.7245 19.2094L16.872 12.9717H17.1588C17.4355 12.9807 17.7046 12.8798 17.9071 12.691C18.1096 12.5023 18.2291 12.241 18.2396 11.9643V9.6694C18.2344 9.5327 18.2024 9.39836 18.1452 9.27405C18.0881 9.14975 18.007 9.03793 17.9067 8.94499C17.8063 8.85204 17.6886 8.7798 17.5603 8.73239C17.432 8.68499 17.2955 8.66334 17.1588 8.6687H14.6504ZM5.38393 6.6673C5.38305 6.60104 5.39534 6.53526 5.42009 6.47378C5.44484 6.4123 5.48157 6.35636 5.52812 6.30919C5.57467 6.26202 5.63013 6.22456 5.69128 6.199C5.75242 6.17344 5.81801 6.16028 5.88428 6.16029H12.2821C12.3486 6.15936 12.4146 6.17189 12.4762 6.19713C12.5378 6.22237 12.5936 6.25979 12.6403 6.30715C12.6871 6.35451 12.7237 6.41082 12.7482 6.47271C12.7726 6.5346 12.7843 6.6008 12.7824 6.6673V7.67467H5.38393V6.6673Z" fill="black"/>
<path d="M23.2618 6.9417C23.2618 9.94706 20.8254 12.3834 17.8201 12.3834C14.8147 12.3834 12.3784 9.94706 12.3784 6.9417C12.3784 3.93633 14.8147 1.5 17.8201 1.5C20.8254 1.5 23.2618 3.93633 23.2618 6.9417Z" fill="black" stroke="white"/>
<path d="M17.8197 10.1246C17.2934 10.1246 16.8417 9.99148 16.4645 9.72514C16.0895 9.45668 15.8008 9.06996 15.5984 8.56499C15.3981 8.05788 15.298 7.44744 15.298 6.73366C15.3001 6.01989 15.4013 5.41264 15.6016 4.91193C15.804 4.40909 16.0927 4.02557 16.4677 3.76136C16.8449 3.49716 17.2955 3.36506 17.8197 3.36506C18.3438 3.36506 18.7944 3.49716 19.1716 3.76136C19.5487 4.02557 19.8374 4.40909 20.0377 4.91193C20.2401 5.41477 20.3413 6.02202 20.3413 6.73366C20.3413 7.44957 20.2401 8.06108 20.0377 8.56818C19.8374 9.07315 19.5487 9.45881 19.1716 9.72514C18.7966 9.99148 18.3459 10.1246 17.8197 10.1246ZM17.8197 9.12429C18.2287 9.12429 18.5515 8.92294 18.7881 8.52024C19.0267 8.11541 19.146 7.51989 19.146 6.73366C19.146 6.21378 19.0917 5.77699 18.983 5.4233C18.8743 5.0696 18.7209 4.80327 18.5228 4.62429C18.3246 4.44318 18.0903 4.35263 17.8197 4.35263C17.4127 4.35263 17.091 4.55504 16.8545 4.95987C16.618 5.36257 16.4986 5.95384 16.4965 6.73366C16.4944 7.25568 16.5466 7.6946 16.6531 8.05043C16.7618 8.40625 16.9152 8.67472 17.1133 8.85582C17.3115 9.0348 17.5469 9.12429 17.8197 9.12429Z" fill="white"/>
</svg>
