<svg width="25" height="25" viewBox="0 0 25 25" fill="none" xmlns="http://www.w3.org/2000/svg">
<path d="M12.5 0C5.60782 0 0 5.60782 0 12.5C0 19.3922 5.60782 25 12.5 25C19.3922 25 25 19.3922 25 12.5C25 5.60782 19.3922 0 12.5 0ZM15.439 8.20656C15.439 8.2933 15.369 8.36669 15.2789 8.36669H14.0112C13.701 8.36669 13.4474 8.62023 13.4474 8.93048V10.2582H15.2522C15.3456 10.2582 15.419 10.3383 15.4123 10.4317L15.2555 12.3032C15.2489 12.3866 15.1788 12.45 15.0954 12.45H13.4474V18.6649C13.4474 18.7517 13.3774 18.8251 13.2873 18.8251H11.0155C10.9287 18.8251 10.8554 18.755 10.8554 18.6649V12.45H9.72111C9.63437 12.45 9.56098 12.3799 9.56098 12.2898V10.4183C9.56098 10.3316 9.63104 10.2582 9.72111 10.2582H10.8554V8.45343C10.8554 7.19576 11.8762 6.17494 13.1338 6.17494H15.2789C15.3656 6.17494 15.439 6.245 15.439 6.33507V8.20656Z" fill="white"/>
</svg>
