<svg width="966" height="589" viewBox="0 0 966 589" fill="none" xmlns="http://www.w3.org/2000/svg">
<path d="M11.436 576.636L9.012 585H7.788L5.844 578.268L3.828 585L2.616 585.012L0.276 576.636H1.44L3.264 583.728L5.28 576.636H6.504L8.424 583.704L10.26 576.636H11.436ZM18.631 581.46C18.631 581.668 18.619 581.888 18.595 582.12H13.339C13.379 582.768 13.599 583.276 13.999 583.644C14.407 584.004 14.899 584.184 15.475 584.184C15.947 584.184 16.339 584.076 16.651 583.86C16.971 583.636 17.195 583.34 17.323 582.972H18.499C18.323 583.604 17.971 584.12 17.443 584.52C16.915 584.912 16.259 585.108 15.475 585.108C14.851 585.108 14.291 584.968 13.795 584.688C13.307 584.408 12.923 584.012 12.643 583.5C12.363 582.98 12.223 582.38 12.223 581.7C12.223 581.02 12.359 580.424 12.631 579.912C12.903 579.4 13.283 579.008 13.771 578.736C14.267 578.456 14.835 578.316 15.475 578.316C16.099 578.316 16.651 578.452 17.131 578.724C17.611 578.996 17.979 579.372 18.235 579.852C18.499 580.324 18.631 580.86 18.631 581.46ZM17.503 581.232C17.503 580.816 17.411 580.46 17.227 580.164C17.043 579.86 16.791 579.632 16.471 579.48C16.159 579.32 15.811 579.24 15.427 579.24C14.875 579.24 14.403 579.416 14.011 579.768C13.627 580.12 13.407 580.608 13.351 581.232H17.503ZM21.1644 576.12V585H20.0724V576.12H21.1644ZM22.6176 581.7C22.6176 581.02 22.7536 580.428 23.0256 579.924C23.2976 579.412 23.6736 579.016 24.1536 578.736C24.6416 578.456 25.1976 578.316 25.8216 578.316C26.6296 578.316 27.2936 578.512 27.8136 578.904C28.3416 579.296 28.6896 579.84 28.8576 580.536H27.6816C27.5696 580.136 27.3496 579.82 27.0216 579.588C26.7016 579.356 26.3016 579.24 25.8216 579.24C25.1976 579.24 24.6936 579.456 24.3096 579.888C23.9256 580.312 23.7336 580.916 23.7336 581.7C23.7336 582.492 23.9256 583.104 24.3096 583.536C24.6936 583.968 25.1976 584.184 25.8216 584.184C26.3016 584.184 26.7016 584.072 27.0216 583.848C27.3416 583.624 27.5616 583.304 27.6816 582.888H28.8576C28.6816 583.56 28.3296 584.1 27.8016 584.508C27.2736 584.908 26.6136 585.108 25.8216 585.108C25.1976 585.108 24.6416 584.968 24.1536 584.688C23.6736 584.408 23.2976 584.012 23.0256 583.5C22.7536 582.988 22.6176 582.388 22.6176 581.7ZM33.1826 585.108C32.5666 585.108 32.0066 584.968 31.5026 584.688C31.0066 584.408 30.6146 584.012 30.3266 583.5C30.0466 582.98 29.9066 582.38 29.9066 581.7C29.9066 581.028 30.0506 580.436 30.3386 579.924C30.6346 579.404 31.0346 579.008 31.5386 578.736C32.0426 578.456 32.6066 578.316 33.2306 578.316C33.8546 578.316 34.4186 578.456 34.9226 578.736C35.4266 579.008 35.8226 579.4 36.1106 579.912C36.4066 580.424 36.5546 581.02 36.5546 581.7C36.5546 582.38 36.4026 582.98 36.0986 583.5C35.8026 584.012 35.3986 584.408 34.8866 584.688C34.3746 584.968 33.8066 585.108 33.1826 585.108ZM33.1826 584.148C33.5746 584.148 33.9426 584.056 34.2866 583.872C34.6306 583.688 34.9066 583.412 35.1146 583.044C35.3306 582.676 35.4386 582.228 35.4386 581.7C35.4386 581.172 35.3346 580.724 35.1266 580.356C34.9186 579.988 34.6466 579.716 34.3106 579.54C33.9746 579.356 33.6106 579.264 33.2186 579.264C32.8186 579.264 32.4506 579.356 32.1146 579.54C31.7866 579.716 31.5226 579.988 31.3226 580.356C31.1226 580.724 31.0226 581.172 31.0226 581.7C31.0226 582.236 31.1186 582.688 31.3106 583.056C31.5106 583.424 31.7746 583.7 32.1026 583.884C32.4306 584.06 32.7906 584.148 33.1826 584.148ZM45.8984 578.304C46.4104 578.304 46.8664 578.412 47.2664 578.628C47.6664 578.836 47.9824 579.152 48.2144 579.576C48.4464 580 48.5624 580.516 48.5624 581.124V585H47.4824V581.28C47.4824 580.624 47.3184 580.124 46.9904 579.78C46.6704 579.428 46.2344 579.252 45.6824 579.252C45.1144 579.252 44.6624 579.436 44.3264 579.804C43.9904 580.164 43.8224 580.688 43.8224 581.376V585H42.7424V581.28C42.7424 580.624 42.5784 580.124 42.2504 579.78C41.9304 579.428 41.4944 579.252 40.9424 579.252C40.3744 579.252 39.9224 579.436 39.5864 579.804C39.2504 580.164 39.0824 580.688 39.0824 581.376V585H37.9904V578.424H39.0824V579.372C39.2984 579.028 39.5864 578.764 39.9464 578.58C40.3144 578.396 40.7184 578.304 41.1584 578.304C41.7104 578.304 42.1984 578.428 42.6224 578.676C43.0464 578.924 43.3624 579.288 43.5704 579.768C43.7544 579.304 44.0584 578.944 44.4824 578.688C44.9064 578.432 45.3784 578.304 45.8984 578.304ZM56.3537 581.46C56.3537 581.668 56.3417 581.888 56.3177 582.12H51.0617C51.1017 582.768 51.3217 583.276 51.7217 583.644C52.1297 584.004 52.6217 584.184 53.1977 584.184C53.6697 584.184 54.0617 584.076 54.3737 583.86C54.6937 583.636 54.9177 583.34 55.0457 582.972H56.2217C56.0457 583.604 55.6937 584.12 55.1657 584.52C54.6377 584.912 53.9817 585.108 53.1977 585.108C52.5737 585.108 52.0137 584.968 51.5177 584.688C51.0297 584.408 50.6457 584.012 50.3657 583.5C50.0857 582.98 49.9457 582.38 49.9457 581.7C49.9457 581.02 50.0817 580.424 50.3537 579.912C50.6257 579.4 51.0057 579.008 51.4937 578.736C51.9897 578.456 52.5577 578.316 53.1977 578.316C53.8217 578.316 54.3737 578.452 54.8537 578.724C55.3337 578.996 55.7017 579.372 55.9577 579.852C56.2217 580.324 56.3537 580.86 56.3537 581.46ZM55.2257 581.232C55.2257 580.816 55.1337 580.46 54.9497 580.164C54.7657 579.86 54.5137 579.632 54.1937 579.48C53.8817 579.32 53.5337 579.24 53.1497 579.24C52.5977 579.24 52.1257 579.416 51.7337 579.768C51.3497 580.12 51.1297 580.608 51.0737 581.232H55.2257ZM62.3263 579.324V583.2C62.3263 583.52 62.3943 583.748 62.5303 583.884C62.6663 584.012 62.9023 584.076 63.2383 584.076H64.0423V585H63.0583C62.4503 585 61.9943 584.86 61.6903 584.58C61.3863 584.3 61.2343 583.84 61.2343 583.2V579.324H60.3823V578.424H61.2343V576.768H62.3263V578.424H64.0423V579.324H62.3263ZM68.2334 585.108C67.6174 585.108 67.0574 584.968 66.5534 584.688C66.0574 584.408 65.6654 584.012 65.3774 583.5C65.0974 582.98 64.9574 582.38 64.9574 581.7C64.9574 581.028 65.1014 580.436 65.3894 579.924C65.6854 579.404 66.0854 579.008 66.5894 578.736C67.0934 578.456 67.6574 578.316 68.2814 578.316C68.9054 578.316 69.4694 578.456 69.9734 578.736C70.4774 579.008 70.8734 579.4 71.1614 579.912C71.4574 580.424 71.6054 581.02 71.6054 581.7C71.6054 582.38 71.4534 582.98 71.1494 583.5C70.8534 584.012 70.4494 584.408 69.9374 584.688C69.4254 584.968 68.8574 585.108 68.2334 585.108ZM68.2334 584.148C68.6254 584.148 68.9934 584.056 69.3374 583.872C69.6814 583.688 69.9574 583.412 70.1654 583.044C70.3814 582.676 70.4894 582.228 70.4894 581.7C70.4894 581.172 70.3854 580.724 70.1774 580.356C69.9694 579.988 69.6974 579.716 69.3614 579.54C69.0254 579.356 68.6614 579.264 68.2694 579.264C67.8694 579.264 67.5014 579.356 67.1654 579.54C66.8374 579.716 66.5734 579.988 66.3734 580.356C66.1734 580.724 66.0734 581.172 66.0734 581.7C66.0734 582.236 66.1694 582.688 66.3614 583.056C66.5614 583.424 66.8254 583.7 67.1534 583.884C67.4814 584.06 67.8414 584.148 68.2334 584.148ZM80.6444 585L78.6524 581.58H77.3324V585H76.2404V576.636H78.9404C79.5724 576.636 80.1044 576.744 80.5364 576.96C80.9764 577.176 81.3044 577.468 81.5204 577.836C81.7364 578.204 81.8444 578.624 81.8444 579.096C81.8444 579.672 81.6764 580.18 81.3404 580.62C81.0124 581.06 80.5164 581.352 79.8524 581.496L81.9524 585H80.6444ZM77.3324 580.704H78.9404C79.5324 580.704 79.9764 580.56 80.2724 580.272C80.5684 579.976 80.7164 579.584 80.7164 579.096C80.7164 578.6 80.5684 578.216 80.2724 577.944C79.9844 577.672 79.5404 577.536 78.9404 577.536H77.3324V580.704ZM83.1332 581.688C83.1332 581.016 83.2692 580.428 83.5412 579.924C83.8132 579.412 84.1852 579.016 84.6572 578.736C85.1372 578.456 85.6692 578.316 86.2532 578.316C86.8292 578.316 87.3292 578.44 87.7532 578.688C88.1772 578.936 88.4932 579.248 88.7012 579.624V578.424H89.8052V585H88.7012V583.776C88.4852 584.16 88.1612 584.48 87.7292 584.736C87.3052 584.984 86.8092 585.108 86.2412 585.108C85.6572 585.108 85.1292 584.964 84.6572 584.676C84.1852 584.388 83.8132 583.984 83.5412 583.464C83.2692 582.944 83.1332 582.352 83.1332 581.688ZM88.7012 581.7C88.7012 581.204 88.6012 580.772 88.4012 580.404C88.2012 580.036 87.9292 579.756 87.5852 579.564C87.2492 579.364 86.8772 579.264 86.4692 579.264C86.0612 579.264 85.6892 579.36 85.3532 579.552C85.0172 579.744 84.7492 580.024 84.5492 580.392C84.3492 580.76 84.2492 581.192 84.2492 581.688C84.2492 582.192 84.3492 582.632 84.5492 583.008C84.7492 583.376 85.0172 583.66 85.3532 583.86C85.6892 584.052 86.0612 584.148 86.4692 584.148C86.8772 584.148 87.2492 584.052 87.5852 583.86C87.9292 583.66 88.2012 583.376 88.4012 583.008C88.6012 582.632 88.7012 582.196 88.7012 581.7ZM92.7426 579.636C92.9586 579.26 93.2786 578.948 93.7026 578.7C94.1346 578.444 94.6346 578.316 95.2026 578.316C95.7866 578.316 96.3146 578.456 96.7866 578.736C97.2666 579.016 97.6426 579.412 97.9146 579.924C98.1866 580.428 98.3226 581.016 98.3226 581.688C98.3226 582.352 98.1866 582.944 97.9146 583.464C97.6426 583.984 97.2666 584.388 96.7866 584.676C96.3146 584.964 95.7866 585.108 95.2026 585.108C94.6426 585.108 94.1466 584.984 93.7146 584.736C93.2906 584.48 92.9666 584.164 92.7426 583.788V588.12H91.6506V578.424H92.7426V579.636ZM97.2066 581.688C97.2066 581.192 97.1066 580.76 96.9066 580.392C96.7066 580.024 96.4346 579.744 96.0906 579.552C95.7546 579.36 95.3826 579.264 94.9746 579.264C94.5746 579.264 94.2026 579.364 93.8586 579.564C93.5226 579.756 93.2506 580.04 93.0426 580.416C92.8426 580.784 92.7426 581.212 92.7426 581.7C92.7426 582.196 92.8426 582.632 93.0426 583.008C93.2506 583.376 93.5226 583.66 93.8586 583.86C94.2026 584.052 94.5746 584.148 94.9746 584.148C95.3826 584.148 95.7546 584.052 96.0906 583.86C96.4346 583.66 96.7066 583.376 96.9066 583.008C97.1066 582.632 97.2066 582.192 97.2066 581.688ZM101.092 579.324V583.2C101.092 583.52 101.16 583.748 101.296 583.884C101.432 584.012 101.668 584.076 102.004 584.076H102.808V585H101.824C101.216 585 100.76 584.86 100.456 584.58C100.152 584.3 99.9999 583.84 99.9999 583.2V579.324H99.1479V578.424H99.9999V576.768H101.092V578.424H102.808V579.324H101.092ZM106.999 585.108C106.383 585.108 105.823 584.968 105.319 584.688C104.823 584.408 104.431 584.012 104.143 583.5C103.863 582.98 103.723 582.38 103.723 581.7C103.723 581.028 103.867 580.436 104.155 579.924C104.451 579.404 104.851 579.008 105.355 578.736C105.859 578.456 106.423 578.316 107.047 578.316C107.671 578.316 108.235 578.456 108.739 578.736C109.243 579.008 109.639 579.4 109.927 579.912C110.223 580.424 110.371 581.02 110.371 581.7C110.371 582.38 110.219 582.98 109.915 583.5C109.619 584.012 109.215 584.408 108.703 584.688C108.191 584.968 107.623 585.108 106.999 585.108ZM106.999 584.148C107.391 584.148 107.759 584.056 108.103 583.872C108.447 583.688 108.723 583.412 108.931 583.044C109.147 582.676 109.255 582.228 109.255 581.7C109.255 581.172 109.151 580.724 108.943 580.356C108.735 579.988 108.463 579.716 108.127 579.54C107.791 579.356 107.427 579.264 107.035 579.264C106.635 579.264 106.267 579.356 105.931 579.54C105.603 579.716 105.339 579.988 105.139 580.356C104.939 580.724 104.839 581.172 104.839 581.7C104.839 582.236 104.935 582.688 105.127 583.056C105.327 583.424 105.591 583.7 105.919 583.884C106.247 584.06 106.607 584.148 106.999 584.148ZM112.899 579.492C113.091 579.116 113.363 578.824 113.715 578.616C114.075 578.408 114.511 578.304 115.023 578.304V579.432H114.735C113.511 579.432 112.899 580.096 112.899 581.424V585H111.807V578.424H112.899V579.492ZM117.411 583.488L116.067 586.716H115.335L116.211 583.488H117.411ZM130.622 578.424L128.57 585H127.442L125.858 579.78L124.274 585H123.146L121.082 578.424H122.198L123.71 583.944L125.342 578.424H126.458L128.054 583.956L129.542 578.424H130.622ZM134.969 578.304C135.465 578.304 135.913 578.412 136.313 578.628C136.713 578.836 137.025 579.152 137.249 579.576C137.481 580 137.597 580.516 137.597 581.124V585H136.517V581.28C136.517 580.624 136.353 580.124 136.025 579.78C135.697 579.428 135.249 579.252 134.681 579.252C134.105 579.252 133.645 579.432 133.301 579.792C132.965 580.152 132.797 580.676 132.797 581.364V585H131.705V576.12H132.797V579.36C133.013 579.024 133.309 578.764 133.685 578.58C134.069 578.396 134.497 578.304 134.969 578.304ZM145.381 581.46C145.381 581.668 145.369 581.888 145.345 582.12H140.089C140.129 582.768 140.349 583.276 140.749 583.644C141.157 584.004 141.649 584.184 142.225 584.184C142.697 584.184 143.089 584.076 143.401 583.86C143.721 583.636 143.945 583.34 144.073 582.972H145.249C145.073 583.604 144.721 584.12 144.193 584.52C143.665 584.912 143.009 585.108 142.225 585.108C141.601 585.108 141.041 584.968 140.545 584.688C140.057 584.408 139.673 584.012 139.393 583.5C139.113 582.98 138.973 582.38 138.973 581.7C138.973 581.02 139.109 580.424 139.381 579.912C139.653 579.4 140.033 579.008 140.521 578.736C141.017 578.456 141.585 578.316 142.225 578.316C142.849 578.316 143.401 578.452 143.881 578.724C144.361 578.996 144.729 579.372 144.985 579.852C145.249 580.324 145.381 580.86 145.381 581.46ZM144.253 581.232C144.253 580.816 144.161 580.46 143.977 580.164C143.793 579.86 143.541 579.632 143.221 579.48C142.909 579.32 142.561 579.24 142.177 579.24C141.625 579.24 141.153 579.416 140.761 579.768C140.377 580.12 140.157 580.608 140.101 581.232H144.253ZM147.914 579.492C148.106 579.116 148.378 578.824 148.73 578.616C149.09 578.408 149.526 578.304 150.038 578.304V579.432H149.75C148.526 579.432 147.914 580.096 147.914 581.424V585H146.822V578.424H147.914V579.492ZM157.299 581.46C157.299 581.668 157.287 581.888 157.263 582.12H152.007C152.047 582.768 152.267 583.276 152.667 583.644C153.075 584.004 153.567 584.184 154.143 584.184C154.615 584.184 155.007 584.076 155.319 583.86C155.639 583.636 155.863 583.34 155.991 582.972H157.167C156.991 583.604 156.639 584.12 156.111 584.52C155.583 584.912 154.927 585.108 154.143 585.108C153.519 585.108 152.959 584.968 152.463 584.688C151.975 584.408 151.591 584.012 151.311 583.5C151.031 582.98 150.891 582.38 150.891 581.7C150.891 581.02 151.027 580.424 151.299 579.912C151.571 579.4 151.951 579.008 152.439 578.736C152.935 578.456 153.503 578.316 154.143 578.316C154.767 578.316 155.319 578.452 155.799 578.724C156.279 578.996 156.647 579.372 156.903 579.852C157.167 580.324 157.299 580.86 157.299 581.46ZM156.171 581.232C156.171 580.816 156.079 580.46 155.895 580.164C155.711 579.86 155.459 579.632 155.139 579.48C154.827 579.32 154.479 579.24 154.095 579.24C153.543 579.24 153.071 579.416 152.679 579.768C152.295 580.12 152.075 580.608 152.019 581.232H156.171ZM161.532 581.688C161.532 581.016 161.668 580.428 161.94 579.924C162.212 579.412 162.584 579.016 163.056 578.736C163.536 578.456 164.072 578.316 164.664 578.316C165.176 578.316 165.652 578.436 166.092 578.676C166.532 578.908 166.868 579.216 167.1 579.6V576.12H168.204V585H167.1V583.764C166.884 584.156 166.564 584.48 166.14 584.736C165.716 584.984 165.22 585.108 164.652 585.108C164.068 585.108 163.536 584.964 163.056 584.676C162.584 584.388 162.212 583.984 161.94 583.464C161.668 582.944 161.532 582.352 161.532 581.688ZM167.1 581.7C167.1 581.204 167 580.772 166.8 580.404C166.6 580.036 166.328 579.756 165.984 579.564C165.648 579.364 165.276 579.264 164.868 579.264C164.46 579.264 164.088 579.36 163.752 579.552C163.416 579.744 163.148 580.024 162.948 580.392C162.748 580.76 162.648 581.192 162.648 581.688C162.648 582.192 162.748 582.632 162.948 583.008C163.148 583.376 163.416 583.66 163.752 583.86C164.088 584.052 164.46 584.148 164.868 584.148C165.276 584.148 165.648 584.052 165.984 583.86C166.328 583.66 166.6 583.376 166.8 583.008C167 582.632 167.1 582.196 167.1 581.7ZM171.141 579.492C171.333 579.116 171.605 578.824 171.957 578.616C172.317 578.408 172.753 578.304 173.265 578.304V579.432H172.977C171.753 579.432 171.141 580.096 171.141 581.424V585H170.049V578.424H171.141V579.492ZM180.526 581.46C180.526 581.668 180.514 581.888 180.49 582.12H175.234C175.274 582.768 175.494 583.276 175.894 583.644C176.302 584.004 176.794 584.184 177.37 584.184C177.842 584.184 178.234 584.076 178.546 583.86C178.866 583.636 179.09 583.34 179.218 582.972H180.394C180.218 583.604 179.866 584.12 179.338 584.52C178.81 584.912 178.154 585.108 177.37 585.108C176.746 585.108 176.186 584.968 175.69 584.688C175.202 584.408 174.818 584.012 174.538 583.5C174.258 582.98 174.118 582.38 174.118 581.7C174.118 581.02 174.254 580.424 174.526 579.912C174.798 579.4 175.178 579.008 175.666 578.736C176.162 578.456 176.73 578.316 177.37 578.316C177.994 578.316 178.546 578.452 179.026 578.724C179.506 578.996 179.874 579.372 180.13 579.852C180.394 580.324 180.526 580.86 180.526 581.46ZM179.398 581.232C179.398 580.816 179.306 580.46 179.122 580.164C178.938 579.86 178.686 579.632 178.366 579.48C178.054 579.32 177.706 579.24 177.322 579.24C176.77 579.24 176.298 579.416 175.906 579.768C175.522 580.12 175.302 580.608 175.246 581.232H179.398ZM181.559 581.688C181.559 581.016 181.695 580.428 181.967 579.924C182.239 579.412 182.611 579.016 183.083 578.736C183.563 578.456 184.095 578.316 184.679 578.316C185.255 578.316 185.755 578.44 186.179 578.688C186.603 578.936 186.919 579.248 187.127 579.624V578.424H188.231V585H187.127V583.776C186.911 584.16 186.587 584.48 186.155 584.736C185.731 584.984 185.235 585.108 184.667 585.108C184.083 585.108 183.555 584.964 183.083 584.676C182.611 584.388 182.239 583.984 181.967 583.464C181.695 582.944 181.559 582.352 181.559 581.688ZM187.127 581.7C187.127 581.204 187.027 580.772 186.827 580.404C186.627 580.036 186.355 579.756 186.011 579.564C185.675 579.364 185.303 579.264 184.895 579.264C184.487 579.264 184.115 579.36 183.779 579.552C183.443 579.744 183.175 580.024 182.975 580.392C182.775 580.76 182.675 581.192 182.675 581.688C182.675 582.192 182.775 582.632 182.975 583.008C183.175 583.376 183.443 583.66 183.779 583.86C184.115 584.052 184.487 584.148 184.895 584.148C185.303 584.148 185.675 584.052 186.011 583.86C186.355 583.66 186.627 583.376 186.827 583.008C187.027 582.632 187.127 582.196 187.127 581.7ZM197.984 578.304C198.496 578.304 198.952 578.412 199.352 578.628C199.752 578.836 200.068 579.152 200.3 579.576C200.532 580 200.648 580.516 200.648 581.124V585H199.568V581.28C199.568 580.624 199.404 580.124 199.076 579.78C198.756 579.428 198.32 579.252 197.768 579.252C197.2 579.252 196.748 579.436 196.412 579.804C196.076 580.164 195.908 580.688 195.908 581.376V585H194.828V581.28C194.828 580.624 194.664 580.124 194.336 579.78C194.016 579.428 193.58 579.252 193.028 579.252C192.46 579.252 192.008 579.436 191.672 579.804C191.336 580.164 191.168 580.688 191.168 581.376V585H190.076V578.424H191.168V579.372C191.384 579.028 191.672 578.764 192.032 578.58C192.4 578.396 192.804 578.304 193.244 578.304C193.796 578.304 194.284 578.428 194.708 578.676C195.132 578.924 195.448 579.288 195.656 579.768C195.84 579.304 196.144 578.944 196.568 578.688C196.992 578.432 197.464 578.304 197.984 578.304ZM204.768 585.108C204.264 585.108 203.812 585.024 203.412 584.856C203.012 584.68 202.696 584.44 202.464 584.136C202.232 583.824 202.104 583.468 202.08 583.068H203.208C203.24 583.396 203.392 583.664 203.664 583.872C203.944 584.08 204.308 584.184 204.756 584.184C205.172 584.184 205.5 584.092 205.74 583.908C205.98 583.724 206.1 583.492 206.1 583.212C206.1 582.924 205.972 582.712 205.716 582.576C205.46 582.432 205.064 582.292 204.528 582.156C204.04 582.028 203.64 581.9 203.328 581.772C203.024 581.636 202.76 581.44 202.536 581.184C202.32 580.92 202.212 580.576 202.212 580.152C202.212 579.816 202.312 579.508 202.512 579.228C202.712 578.948 202.996 578.728 203.364 578.568C203.732 578.4 204.152 578.316 204.624 578.316C205.352 578.316 205.94 578.5 206.388 578.868C206.836 579.236 207.076 579.74 207.108 580.38H206.016C205.992 580.036 205.852 579.76 205.596 579.552C205.348 579.344 205.012 579.24 204.588 579.24C204.196 579.24 203.884 579.324 203.652 579.492C203.42 579.66 203.304 579.88 203.304 580.152C203.304 580.368 203.372 580.548 203.508 580.692C203.652 580.828 203.828 580.94 204.036 581.028C204.252 581.108 204.548 581.2 204.924 581.304C205.396 581.432 205.78 581.56 206.076 581.688C206.372 581.808 206.624 581.992 206.832 582.24C207.048 582.488 207.16 582.812 207.168 583.212C207.168 583.572 207.068 583.896 206.868 584.184C206.668 584.472 206.384 584.7 206.016 584.868C205.656 585.028 205.24 585.108 204.768 585.108ZM211.5 581.7C211.5 581.02 211.636 580.428 211.908 579.924C212.18 579.412 212.556 579.016 213.036 578.736C213.524 578.456 214.08 578.316 214.704 578.316C215.512 578.316 216.176 578.512 216.696 578.904C217.224 579.296 217.572 579.84 217.74 580.536H216.564C216.452 580.136 216.232 579.82 215.904 579.588C215.584 579.356 215.184 579.24 214.704 579.24C214.08 579.24 213.576 579.456 213.192 579.888C212.808 580.312 212.616 580.916 212.616 581.7C212.616 582.492 212.808 583.104 213.192 583.536C213.576 583.968 214.08 584.184 214.704 584.184C215.184 584.184 215.584 584.072 215.904 583.848C216.224 583.624 216.444 583.304 216.564 582.888H217.74C217.564 583.56 217.212 584.1 216.684 584.508C216.156 584.908 215.496 585.108 214.704 585.108C214.08 585.108 213.524 584.968 213.036 584.688C212.556 584.408 212.18 584.012 211.908 583.5C211.636 582.988 211.5 582.388 211.5 581.7ZM222.065 585.108C221.449 585.108 220.889 584.968 220.385 584.688C219.889 584.408 219.497 584.012 219.209 583.5C218.929 582.98 218.789 582.38 218.789 581.7C218.789 581.028 218.933 580.436 219.221 579.924C219.517 579.404 219.917 579.008 220.421 578.736C220.925 578.456 221.489 578.316 222.113 578.316C222.737 578.316 223.301 578.456 223.805 578.736C224.309 579.008 224.705 579.4 224.993 579.912C225.289 580.424 225.437 581.02 225.437 581.7C225.437 582.38 225.285 582.98 224.981 583.5C224.685 584.012 224.281 584.408 223.769 584.688C223.257 584.968 222.689 585.108 222.065 585.108ZM222.065 584.148C222.457 584.148 222.825 584.056 223.169 583.872C223.513 583.688 223.789 583.412 223.997 583.044C224.213 582.676 224.321 582.228 224.321 581.7C224.321 581.172 224.217 580.724 224.009 580.356C223.801 579.988 223.529 579.716 223.193 579.54C222.857 579.356 222.493 579.264 222.101 579.264C221.701 579.264 221.333 579.356 220.997 579.54C220.669 579.716 220.405 579.988 220.205 580.356C220.005 580.724 219.905 581.172 219.905 581.7C219.905 582.236 220.001 582.688 220.193 583.056C220.393 583.424 220.657 583.7 220.985 583.884C221.313 584.06 221.673 584.148 222.065 584.148ZM234.781 578.304C235.293 578.304 235.749 578.412 236.149 578.628C236.549 578.836 236.865 579.152 237.097 579.576C237.329 580 237.445 580.516 237.445 581.124V585H236.365V581.28C236.365 580.624 236.201 580.124 235.873 579.78C235.553 579.428 235.117 579.252 234.565 579.252C233.997 579.252 233.545 579.436 233.209 579.804C232.873 580.164 232.705 580.688 232.705 581.376V585H231.625V581.28C231.625 580.624 231.461 580.124 231.133 579.78C230.813 579.428 230.377 579.252 229.825 579.252C229.257 579.252 228.805 579.436 228.469 579.804C228.133 580.164 227.965 580.688 227.965 581.376V585H226.873V578.424H227.965V579.372C228.181 579.028 228.469 578.764 228.829 578.58C229.197 578.396 229.601 578.304 230.041 578.304C230.593 578.304 231.081 578.428 231.505 578.676C231.929 578.924 232.245 579.288 232.453 579.768C232.637 579.304 232.941 578.944 233.365 578.688C233.789 578.432 234.261 578.304 234.781 578.304ZM245.237 581.46C245.237 581.668 245.225 581.888 245.201 582.12H239.945C239.985 582.768 240.205 583.276 240.605 583.644C241.013 584.004 241.505 584.184 242.081 584.184C242.553 584.184 242.945 584.076 243.257 583.86C243.577 583.636 243.801 583.34 243.929 582.972H245.105C244.929 583.604 244.577 584.12 244.049 584.52C243.521 584.912 242.865 585.108 242.081 585.108C241.457 585.108 240.897 584.968 240.401 584.688C239.913 584.408 239.529 584.012 239.249 583.5C238.969 582.98 238.829 582.38 238.829 581.7C238.829 581.02 238.965 580.424 239.237 579.912C239.509 579.4 239.889 579.008 240.377 578.736C240.873 578.456 241.441 578.316 242.081 578.316C242.705 578.316 243.257 578.452 243.737 578.724C244.217 578.996 244.585 579.372 244.841 579.852C245.105 580.324 245.237 580.86 245.237 581.46ZM244.109 581.232C244.109 580.816 244.017 580.46 243.833 580.164C243.649 579.86 243.397 579.632 243.077 579.48C242.765 579.32 242.417 579.24 242.033 579.24C241.481 579.24 241.009 579.416 240.617 579.768C240.233 580.12 240.013 580.608 239.957 581.232H244.109ZM251.209 579.324V583.2C251.209 583.52 251.277 583.748 251.413 583.884C251.549 584.012 251.785 584.076 252.121 584.076H252.925V585H251.941C251.333 585 250.877 584.86 250.573 584.58C250.269 584.3 250.117 583.84 250.117 583.2V579.324H249.265V578.424H250.117V576.768H251.209V578.424H252.925V579.324H251.209ZM257.116 585.108C256.5 585.108 255.94 584.968 255.436 584.688C254.94 584.408 254.548 584.012 254.26 583.5C253.98 582.98 253.84 582.38 253.84 581.7C253.84 581.028 253.984 580.436 254.272 579.924C254.568 579.404 254.968 579.008 255.472 578.736C255.976 578.456 256.54 578.316 257.164 578.316C257.788 578.316 258.352 578.456 258.856 578.736C259.36 579.008 259.756 579.4 260.044 579.912C260.34 580.424 260.488 581.02 260.488 581.7C260.488 582.38 260.336 582.98 260.032 583.5C259.736 584.012 259.332 584.408 258.82 584.688C258.308 584.968 257.74 585.108 257.116 585.108ZM257.116 584.148C257.508 584.148 257.876 584.056 258.22 583.872C258.564 583.688 258.84 583.412 259.048 583.044C259.264 582.676 259.372 582.228 259.372 581.7C259.372 581.172 259.268 580.724 259.06 580.356C258.852 579.988 258.58 579.716 258.244 579.54C257.908 579.356 257.544 579.264 257.152 579.264C256.752 579.264 256.384 579.356 256.048 579.54C255.72 579.716 255.456 579.988 255.256 580.356C255.056 580.724 254.956 581.172 254.956 581.7C254.956 582.236 255.052 582.688 255.244 583.056C255.444 583.424 255.708 583.7 256.036 583.884C256.364 584.06 256.724 584.148 257.116 584.148ZM266.215 576.12V585H265.123V576.12H266.215ZM268.64 577.356C268.432 577.356 268.256 577.284 268.112 577.14C267.968 576.996 267.896 576.82 267.896 576.612C267.896 576.404 267.968 576.228 268.112 576.084C268.256 575.94 268.432 575.868 268.64 575.868C268.84 575.868 269.008 575.94 269.144 576.084C269.288 576.228 269.36 576.404 269.36 576.612C269.36 576.82 269.288 576.996 269.144 577.14C269.008 577.284 268.84 577.356 268.64 577.356ZM269.168 578.424V585H268.076V578.424H269.168ZM273.705 579.324H272.325V585H271.233V579.324H270.381V578.424H271.233V577.956C271.233 577.22 271.421 576.684 271.797 576.348C272.181 576.004 272.793 575.832 273.633 575.832V576.744C273.153 576.744 272.813 576.84 272.613 577.032C272.421 577.216 272.325 577.524 272.325 577.956V578.424H273.705V579.324ZM280.979 581.46C280.979 581.668 280.967 581.888 280.943 582.12H275.687C275.727 582.768 275.947 583.276 276.347 583.644C276.755 584.004 277.247 584.184 277.823 584.184C278.295 584.184 278.687 584.076 278.999 583.86C279.319 583.636 279.543 583.34 279.671 582.972H280.847C280.671 583.604 280.319 584.12 279.791 584.52C279.263 584.912 278.607 585.108 277.823 585.108C277.199 585.108 276.639 584.968 276.143 584.688C275.655 584.408 275.271 584.012 274.991 583.5C274.711 582.98 274.571 582.38 274.571 581.7C274.571 581.02 274.707 580.424 274.979 579.912C275.251 579.4 275.631 579.008 276.119 578.736C276.615 578.456 277.183 578.316 277.823 578.316C278.447 578.316 278.999 578.452 279.479 578.724C279.959 578.996 280.327 579.372 280.583 579.852C280.847 580.324 280.979 580.86 280.979 581.46ZM279.851 581.232C279.851 580.816 279.759 580.46 279.575 580.164C279.391 579.86 279.139 579.632 278.819 579.48C278.507 579.32 278.159 579.24 277.775 579.24C277.223 579.24 276.751 579.416 276.359 579.768C275.975 580.12 275.755 580.608 275.699 581.232H279.851ZM285.211 581.688C285.211 581.016 285.347 580.428 285.619 579.924C285.891 579.412 286.263 579.016 286.735 578.736C287.215 578.456 287.747 578.316 288.331 578.316C288.907 578.316 289.407 578.44 289.831 578.688C290.255 578.936 290.571 579.248 290.779 579.624V578.424H291.883V585H290.779V583.776C290.563 584.16 290.239 584.48 289.807 584.736C289.383 584.984 288.887 585.108 288.319 585.108C287.735 585.108 287.207 584.964 286.735 584.676C286.263 584.388 285.891 583.984 285.619 583.464C285.347 582.944 285.211 582.352 285.211 581.688ZM290.779 581.7C290.779 581.204 290.679 580.772 290.479 580.404C290.279 580.036 290.007 579.756 289.663 579.564C289.327 579.364 288.955 579.264 288.547 579.264C288.139 579.264 287.767 579.36 287.431 579.552C287.095 579.744 286.827 580.024 286.627 580.392C286.427 580.76 286.327 581.192 286.327 581.688C286.327 582.192 286.427 582.632 286.627 583.008C286.827 583.376 287.095 583.66 287.431 583.86C287.767 584.052 288.139 584.148 288.547 584.148C288.955 584.148 289.327 584.052 289.663 583.86C290.007 583.66 290.279 583.376 290.479 583.008C290.679 582.632 290.779 582.196 290.779 581.7ZM296.933 578.304C297.733 578.304 298.381 578.548 298.877 579.036C299.373 579.516 299.621 580.212 299.621 581.124V585H298.541V581.28C298.541 580.624 298.377 580.124 298.049 579.78C297.721 579.428 297.273 579.252 296.705 579.252C296.129 579.252 295.669 579.432 295.325 579.792C294.989 580.152 294.821 580.676 294.821 581.364V585H293.729V578.424H294.821V579.36C295.037 579.024 295.329 578.764 295.697 578.58C296.073 578.396 296.485 578.304 296.933 578.304ZM300.996 581.688C300.996 581.016 301.132 580.428 301.404 579.924C301.676 579.412 302.048 579.016 302.52 578.736C303 578.456 303.536 578.316 304.128 578.316C304.64 578.316 305.116 578.436 305.556 578.676C305.996 578.908 306.332 579.216 306.564 579.6V576.12H307.668V585H306.564V583.764C306.348 584.156 306.028 584.48 305.604 584.736C305.18 584.984 304.684 585.108 304.116 585.108C303.532 585.108 303 584.964 302.52 584.676C302.048 584.388 301.676 583.984 301.404 583.464C301.132 582.944 300.996 582.352 300.996 581.688ZM306.564 581.7C306.564 581.204 306.464 580.772 306.264 580.404C306.064 580.036 305.792 579.756 305.448 579.564C305.112 579.364 304.74 579.264 304.332 579.264C303.924 579.264 303.552 579.36 303.216 579.552C302.88 579.744 302.612 580.024 302.412 580.392C302.212 580.76 302.112 581.192 302.112 581.688C302.112 582.192 302.212 582.632 302.412 583.008C302.612 583.376 302.88 583.66 303.216 583.86C303.552 584.052 303.924 584.148 304.332 584.148C304.74 584.148 305.112 584.052 305.448 583.86C305.792 583.66 306.064 583.376 306.264 583.008C306.464 582.632 306.564 582.196 306.564 581.7ZM318.713 581.46C318.713 581.668 318.701 581.888 318.677 582.12H313.421C313.461 582.768 313.681 583.276 314.081 583.644C314.489 584.004 314.981 584.184 315.557 584.184C316.029 584.184 316.421 584.076 316.733 583.86C317.053 583.636 317.277 583.34 317.405 582.972H318.581C318.405 583.604 318.053 584.12 317.525 584.52C316.997 584.912 316.341 585.108 315.557 585.108C314.933 585.108 314.373 584.968 313.877 584.688C313.389 584.408 313.005 584.012 312.725 583.5C312.445 582.98 312.305 582.38 312.305 581.7C312.305 581.02 312.441 580.424 312.713 579.912C312.985 579.4 313.365 579.008 313.853 578.736C314.349 578.456 314.917 578.316 315.557 578.316C316.181 578.316 316.733 578.452 317.213 578.724C317.693 578.996 318.061 579.372 318.317 579.852C318.581 580.324 318.713 580.86 318.713 581.46ZM317.585 581.232C317.585 580.816 317.493 580.46 317.309 580.164C317.125 579.86 316.873 579.632 316.553 579.48C316.241 579.32 315.893 579.24 315.509 579.24C314.957 579.24 314.485 579.416 314.093 579.768C313.709 580.12 313.489 580.608 313.433 581.232H317.585ZM322.602 583.992L324.642 578.424H325.806L323.226 585H321.954L319.374 578.424H320.55L322.602 583.992ZM332.881 581.46C332.881 581.668 332.869 581.888 332.845 582.12H327.589C327.629 582.768 327.849 583.276 328.249 583.644C328.657 584.004 329.149 584.184 329.725 584.184C330.197 584.184 330.589 584.076 330.901 583.86C331.221 583.636 331.445 583.34 331.573 582.972H332.749C332.573 583.604 332.221 584.12 331.693 584.52C331.165 584.912 330.509 585.108 329.725 585.108C329.101 585.108 328.541 584.968 328.045 584.688C327.557 584.408 327.173 584.012 326.893 583.5C326.613 582.98 326.473 582.38 326.473 581.7C326.473 581.02 326.609 580.424 326.881 579.912C327.153 579.4 327.533 579.008 328.021 578.736C328.517 578.456 329.085 578.316 329.725 578.316C330.349 578.316 330.901 578.452 331.381 578.724C331.861 578.996 332.229 579.372 332.485 579.852C332.749 580.324 332.881 580.86 332.881 581.46ZM331.753 581.232C331.753 580.816 331.661 580.46 331.477 580.164C331.293 579.86 331.041 579.632 330.721 579.48C330.409 579.32 330.061 579.24 329.677 579.24C329.125 579.24 328.653 579.416 328.261 579.768C327.877 580.12 327.657 580.608 327.601 581.232H331.753ZM335.414 579.492C335.606 579.116 335.878 578.824 336.23 578.616C336.59 578.408 337.026 578.304 337.538 578.304V579.432H337.25C336.026 579.432 335.414 580.096 335.414 581.424V585H334.322V578.424H335.414V579.492ZM344.463 578.424L340.503 588.096H339.375L340.671 584.928L338.019 578.424H339.231L341.295 583.752L343.335 578.424H344.463ZM349.852 579.636C350.068 579.26 350.388 578.948 350.812 578.7C351.244 578.444 351.744 578.316 352.312 578.316C352.896 578.316 353.424 578.456 353.896 578.736C354.376 579.016 354.752 579.412 355.024 579.924C355.296 580.428 355.432 581.016 355.432 581.688C355.432 582.352 355.296 582.944 355.024 583.464C354.752 583.984 354.376 584.388 353.896 584.676C353.424 584.964 352.896 585.108 352.312 585.108C351.752 585.108 351.256 584.984 350.824 584.736C350.4 584.48 350.076 584.164 349.852 583.788V588.12H348.76V578.424H349.852V579.636ZM354.316 581.688C354.316 581.192 354.216 580.76 354.016 580.392C353.816 580.024 353.544 579.744 353.2 579.552C352.864 579.36 352.492 579.264 352.084 579.264C351.684 579.264 351.312 579.364 350.968 579.564C350.632 579.756 350.36 580.04 350.152 580.416C349.952 580.784 349.852 581.212 349.852 581.7C349.852 582.196 349.952 582.632 350.152 583.008C350.36 583.376 350.632 583.66 350.968 583.86C351.312 584.052 351.684 584.148 352.084 584.148C352.492 584.148 352.864 584.052 353.2 583.86C353.544 583.66 353.816 583.376 354.016 583.008C354.216 582.632 354.316 582.192 354.316 581.688ZM362.869 581.46C362.869 581.668 362.857 581.888 362.833 582.12H357.577C357.617 582.768 357.837 583.276 358.237 583.644C358.645 584.004 359.137 584.184 359.713 584.184C360.185 584.184 360.577 584.076 360.889 583.86C361.209 583.636 361.433 583.34 361.561 582.972H362.737C362.561 583.604 362.209 584.12 361.681 584.52C361.153 584.912 360.497 585.108 359.713 585.108C359.089 585.108 358.529 584.968 358.033 584.688C357.545 584.408 357.161 584.012 356.881 583.5C356.601 582.98 356.461 582.38 356.461 581.7C356.461 581.02 356.597 580.424 356.869 579.912C357.141 579.4 357.521 579.008 358.009 578.736C358.505 578.456 359.073 578.316 359.713 578.316C360.337 578.316 360.889 578.452 361.369 578.724C361.849 578.996 362.217 579.372 362.473 579.852C362.737 580.324 362.869 580.86 362.869 581.46ZM361.741 581.232C361.741 580.816 361.649 580.46 361.465 580.164C361.281 579.86 361.029 579.632 360.709 579.48C360.397 579.32 360.049 579.24 359.665 579.24C359.113 579.24 358.641 579.416 358.249 579.768C357.865 580.12 357.645 580.608 357.589 581.232H361.741ZM363.903 581.688C363.903 581.016 364.039 580.428 364.311 579.924C364.583 579.412 364.955 579.016 365.427 578.736C365.907 578.456 366.443 578.316 367.035 578.316C367.547 578.316 368.023 578.436 368.463 578.676C368.903 578.908 369.239 579.216 369.471 579.6V576.12H370.575V585H369.471V583.764C369.255 584.156 368.935 584.48 368.511 584.736C368.087 584.984 367.591 585.108 367.023 585.108C366.439 585.108 365.907 584.964 365.427 584.676C364.955 584.388 364.583 583.984 364.311 583.464C364.039 582.944 363.903 582.352 363.903 581.688ZM369.471 581.7C369.471 581.204 369.371 580.772 369.171 580.404C368.971 580.036 368.699 579.756 368.355 579.564C368.019 579.364 367.647 579.264 367.239 579.264C366.831 579.264 366.459 579.36 366.123 579.552C365.787 579.744 365.519 580.024 365.319 580.392C365.119 580.76 365.019 581.192 365.019 581.688C365.019 582.192 365.119 582.632 365.319 583.008C365.519 583.376 365.787 583.66 366.123 583.86C366.459 584.052 366.831 584.148 367.239 584.148C367.647 584.148 368.019 584.052 368.355 583.86C368.699 583.66 368.971 583.376 369.171 583.008C369.371 582.632 369.471 582.196 369.471 581.7ZM372.012 581.688C372.012 581.016 372.148 580.428 372.42 579.924C372.692 579.412 373.064 579.016 373.536 578.736C374.016 578.456 374.548 578.316 375.132 578.316C375.708 578.316 376.208 578.44 376.632 578.688C377.056 578.936 377.372 579.248 377.58 579.624V578.424H378.684V585H377.58V583.776C377.364 584.16 377.04 584.48 376.608 584.736C376.184 584.984 375.688 585.108 375.12 585.108C374.536 585.108 374.008 584.964 373.536 584.676C373.064 584.388 372.692 583.984 372.42 583.464C372.148 582.944 372.012 582.352 372.012 581.688ZM377.58 581.7C377.58 581.204 377.48 580.772 377.28 580.404C377.08 580.036 376.808 579.756 376.464 579.564C376.128 579.364 375.756 579.264 375.348 579.264C374.94 579.264 374.568 579.36 374.232 579.552C373.896 579.744 373.628 580.024 373.428 580.392C373.228 580.76 373.128 581.192 373.128 581.688C373.128 582.192 373.228 582.632 373.428 583.008C373.628 583.376 373.896 583.66 374.232 583.86C374.568 584.052 374.94 584.148 375.348 584.148C375.756 584.148 376.128 584.052 376.464 583.86C376.808 583.66 377.08 583.376 377.28 583.008C377.48 582.632 377.58 582.196 377.58 581.7ZM381.621 576.12V585H380.529V576.12H381.621ZM389.01 585.108C388.506 585.108 388.054 585.024 387.654 584.856C387.254 584.68 386.938 584.44 386.706 584.136C386.474 583.824 386.346 583.468 386.322 583.068H387.45C387.482 583.396 387.634 583.664 387.906 583.872C388.186 584.08 388.55 584.184 388.998 584.184C389.414 584.184 389.742 584.092 389.982 583.908C390.222 583.724 390.342 583.492 390.342 583.212C390.342 582.924 390.214 582.712 389.958 582.576C389.702 582.432 389.306 582.292 388.77 582.156C388.282 582.028 387.882 581.9 387.57 581.772C387.266 581.636 387.002 581.44 386.778 581.184C386.562 580.92 386.454 580.576 386.454 580.152C386.454 579.816 386.554 579.508 386.754 579.228C386.954 578.948 387.238 578.728 387.606 578.568C387.974 578.4 388.394 578.316 388.866 578.316C389.594 578.316 390.182 578.5 390.63 578.868C391.078 579.236 391.318 579.74 391.35 580.38H390.258C390.234 580.036 390.094 579.76 389.838 579.552C389.59 579.344 389.254 579.24 388.83 579.24C388.438 579.24 388.126 579.324 387.894 579.492C387.662 579.66 387.546 579.88 387.546 580.152C387.546 580.368 387.614 580.548 387.75 580.692C387.894 580.828 388.07 580.94 388.278 581.028C388.494 581.108 388.79 581.2 389.166 581.304C389.638 581.432 390.022 581.56 390.318 581.688C390.614 581.808 390.866 581.992 391.074 582.24C391.29 582.488 391.402 582.812 391.41 583.212C391.41 583.572 391.31 583.896 391.11 584.184C390.91 584.472 390.626 584.7 390.258 584.868C389.898 585.028 389.482 585.108 389.01 585.108ZM394.283 579.324V583.2C394.283 583.52 394.351 583.748 394.487 583.884C394.623 584.012 394.859 584.076 395.195 584.076H395.999V585H395.015C394.407 585 393.951 584.86 393.647 584.58C393.343 584.3 393.191 583.84 393.191 583.2V579.324H392.339V578.424H393.191V576.768H394.283V578.424H395.999V579.324H394.283ZM398.414 579.492C398.606 579.116 398.878 578.824 399.23 578.616C399.59 578.408 400.026 578.304 400.538 578.304V579.432H400.25C399.026 579.432 398.414 580.096 398.414 581.424V585H397.322V578.424H398.414V579.492ZM404.667 585.108C404.051 585.108 403.491 584.968 402.987 584.688C402.491 584.408 402.099 584.012 401.811 583.5C401.531 582.98 401.391 582.38 401.391 581.7C401.391 581.028 401.535 580.436 401.823 579.924C402.119 579.404 402.519 579.008 403.023 578.736C403.527 578.456 404.091 578.316 404.715 578.316C405.339 578.316 405.903 578.456 406.407 578.736C406.911 579.008 407.307 579.4 407.595 579.912C407.891 580.424 408.039 581.02 408.039 581.7C408.039 582.38 407.887 582.98 407.583 583.5C407.287 584.012 406.883 584.408 406.371 584.688C405.859 584.968 405.291 585.108 404.667 585.108ZM404.667 584.148C405.059 584.148 405.427 584.056 405.771 583.872C406.115 583.688 406.391 583.412 406.599 583.044C406.815 582.676 406.923 582.228 406.923 581.7C406.923 581.172 406.819 580.724 406.611 580.356C406.403 579.988 406.131 579.716 405.795 579.54C405.459 579.356 405.095 579.264 404.703 579.264C404.303 579.264 403.935 579.356 403.599 579.54C403.271 579.716 403.007 579.988 402.807 580.356C402.607 580.724 402.507 581.172 402.507 581.7C402.507 582.236 402.603 582.688 402.795 583.056C402.995 583.424 403.259 583.7 403.587 583.884C403.915 584.06 404.275 584.148 404.667 584.148ZM413.147 585L410.567 582.096V585H409.475V576.12H410.567V581.34L413.099 578.424H414.623L411.527 581.7L414.635 585H413.147ZM421.651 581.46C421.651 581.668 421.639 581.888 421.615 582.12H416.359C416.399 582.768 416.619 583.276 417.019 583.644C417.427 584.004 417.919 584.184 418.495 584.184C418.967 584.184 419.359 584.076 419.671 583.86C419.991 583.636 420.215 583.34 420.343 582.972H421.519C421.343 583.604 420.991 584.12 420.463 584.52C419.935 584.912 419.279 585.108 418.495 585.108C417.871 585.108 417.311 584.968 416.815 584.688C416.327 584.408 415.943 584.012 415.663 583.5C415.383 582.98 415.243 582.38 415.243 581.7C415.243 581.02 415.379 580.424 415.651 579.912C415.923 579.4 416.303 579.008 416.791 578.736C417.287 578.456 417.855 578.316 418.495 578.316C419.119 578.316 419.671 578.452 420.151 578.724C420.631 578.996 420.999 579.372 421.255 579.852C421.519 580.324 421.651 580.86 421.651 581.46ZM420.523 581.232C420.523 580.816 420.431 580.46 420.247 580.164C420.063 579.86 419.811 579.632 419.491 579.48C419.179 579.32 418.831 579.24 418.447 579.24C417.895 579.24 417.423 579.416 417.031 579.768C416.647 580.12 416.427 580.608 416.371 581.232H420.523ZM427.383 579.648C427.607 579.256 427.935 578.936 428.367 578.688C428.799 578.44 429.291 578.316 429.843 578.316C430.435 578.316 430.967 578.456 431.439 578.736C431.911 579.016 432.283 579.412 432.555 579.924C432.827 580.428 432.963 581.016 432.963 581.688C432.963 582.352 432.827 582.944 432.555 583.464C432.283 583.984 431.907 584.388 431.427 584.676C430.955 584.964 430.427 585.108 429.843 585.108C429.275 585.108 428.775 584.984 428.343 584.736C427.919 584.488 427.599 584.172 427.383 583.788V585H426.291V576.12H427.383V579.648ZM431.847 581.688C431.847 581.192 431.747 580.76 431.547 580.392C431.347 580.024 431.075 579.744 430.731 579.552C430.395 579.36 430.023 579.264 429.615 579.264C429.215 579.264 428.843 579.364 428.499 579.564C428.163 579.756 427.891 580.04 427.683 580.416C427.483 580.784 427.383 581.212 427.383 581.7C427.383 582.196 427.483 582.632 427.683 583.008C427.891 583.376 428.163 583.66 428.499 583.86C428.843 584.052 429.215 584.148 429.615 584.148C430.023 584.148 430.395 584.052 430.731 583.86C431.075 583.66 431.347 583.376 431.547 583.008C431.747 582.632 431.847 582.192 431.847 581.688ZM435.493 579.492C435.685 579.116 435.957 578.824 436.309 578.616C436.669 578.408 437.105 578.304 437.617 578.304V579.432H437.329C436.105 579.432 435.493 580.096 435.493 581.424V585H434.401V578.424H435.493V579.492ZM439.441 577.356C439.233 577.356 439.057 577.284 438.913 577.14C438.769 576.996 438.697 576.82 438.697 576.612C438.697 576.404 438.769 576.228 438.913 576.084C439.057 575.94 439.233 575.868 439.441 575.868C439.641 575.868 439.809 575.94 439.945 576.084C440.089 576.228 440.161 576.404 440.161 576.612C440.161 576.82 440.089 576.996 439.945 577.14C439.809 577.284 439.641 577.356 439.441 577.356ZM439.969 578.424V585H438.877V578.424H439.969ZM445.034 578.304C445.834 578.304 446.482 578.548 446.978 579.036C447.474 579.516 447.722 580.212 447.722 581.124V585H446.642V581.28C446.642 580.624 446.478 580.124 446.15 579.78C445.822 579.428 445.374 579.252 444.806 579.252C444.23 579.252 443.77 579.432 443.426 579.792C443.09 580.152 442.922 580.676 442.922 581.364V585H441.83V578.424H442.922V579.36C443.138 579.024 443.43 578.764 443.798 578.58C444.174 578.396 444.586 578.304 445.034 578.304ZM452.218 578.316C452.786 578.316 453.282 578.44 453.706 578.688C454.138 578.936 454.458 579.248 454.666 579.624V578.424H455.77V585.144C455.77 585.744 455.642 586.276 455.386 586.74C455.13 587.212 454.762 587.58 454.282 587.844C453.81 588.108 453.258 588.24 452.626 588.24C451.762 588.24 451.042 588.036 450.466 587.628C449.89 587.22 449.55 586.664 449.446 585.96H450.526C450.646 586.36 450.894 586.68 451.27 586.92C451.646 587.168 452.098 587.292 452.626 587.292C453.226 587.292 453.714 587.104 454.09 586.728C454.474 586.352 454.666 585.824 454.666 585.144V583.764C454.45 584.148 454.13 584.468 453.706 584.724C453.282 584.98 452.786 585.108 452.218 585.108C451.634 585.108 451.102 584.964 450.622 584.676C450.15 584.388 449.778 583.984 449.506 583.464C449.234 582.944 449.098 582.352 449.098 581.688C449.098 581.016 449.234 580.428 449.506 579.924C449.778 579.412 450.15 579.016 450.622 578.736C451.102 578.456 451.634 578.316 452.218 578.316ZM454.666 581.7C454.666 581.204 454.566 580.772 454.366 580.404C454.166 580.036 453.894 579.756 453.55 579.564C453.214 579.364 452.842 579.264 452.434 579.264C452.026 579.264 451.654 579.36 451.318 579.552C450.982 579.744 450.714 580.024 450.514 580.392C450.314 580.76 450.214 581.192 450.214 581.688C450.214 582.192 450.314 582.632 450.514 583.008C450.714 583.376 450.982 583.66 451.318 583.86C451.654 584.052 452.026 584.148 452.434 584.148C452.842 584.148 453.214 584.052 453.55 583.86C453.894 583.66 454.166 583.376 454.366 583.008C454.566 582.632 454.666 582.196 454.666 581.7ZM459.943 585.108C459.439 585.108 458.987 585.024 458.587 584.856C458.187 584.68 457.871 584.44 457.639 584.136C457.407 583.824 457.279 583.468 457.255 583.068H458.383C458.415 583.396 458.567 583.664 458.839 583.872C459.119 584.08 459.483 584.184 459.931 584.184C460.347 584.184 460.675 584.092 460.915 583.908C461.155 583.724 461.275 583.492 461.275 583.212C461.275 582.924 461.147 582.712 460.891 582.576C460.635 582.432 460.239 582.292 459.703 582.156C459.215 582.028 458.815 581.9 458.503 581.772C458.199 581.636 457.935 581.44 457.711 581.184C457.495 580.92 457.387 580.576 457.387 580.152C457.387 579.816 457.487 579.508 457.687 579.228C457.887 578.948 458.171 578.728 458.539 578.568C458.907 578.4 459.327 578.316 459.799 578.316C460.527 578.316 461.115 578.5 461.563 578.868C462.011 579.236 462.251 579.74 462.283 580.38H461.191C461.167 580.036 461.027 579.76 460.771 579.552C460.523 579.344 460.187 579.24 459.763 579.24C459.371 579.24 459.059 579.324 458.827 579.492C458.595 579.66 458.479 579.88 458.479 580.152C458.479 580.368 458.547 580.548 458.683 580.692C458.827 580.828 459.003 580.94 459.211 581.028C459.427 581.108 459.723 581.2 460.099 581.304C460.571 581.432 460.955 581.56 461.251 581.688C461.547 581.808 461.799 581.992 462.007 582.24C462.223 582.488 462.335 582.812 462.343 583.212C462.343 583.572 462.243 583.896 462.043 584.184C461.843 584.472 461.559 584.7 461.191 584.868C460.831 585.028 460.415 585.108 459.943 585.108ZM472.748 578.424L468.788 588.096H467.66L468.956 584.928L466.304 578.424H467.516L469.58 583.752L471.62 578.424H472.748ZM476.714 585.108C476.098 585.108 475.538 584.968 475.034 584.688C474.538 584.408 474.146 584.012 473.858 583.5C473.578 582.98 473.438 582.38 473.438 581.7C473.438 581.028 473.582 580.436 473.87 579.924C474.166 579.404 474.566 579.008 475.07 578.736C475.574 578.456 476.138 578.316 476.762 578.316C477.386 578.316 477.95 578.456 478.454 578.736C478.958 579.008 479.354 579.4 479.642 579.912C479.938 580.424 480.086 581.02 480.086 581.7C480.086 582.38 479.934 582.98 479.63 583.5C479.334 584.012 478.93 584.408 478.418 584.688C477.906 584.968 477.338 585.108 476.714 585.108ZM476.714 584.148C477.106 584.148 477.474 584.056 477.818 583.872C478.162 583.688 478.438 583.412 478.646 583.044C478.862 582.676 478.97 582.228 478.97 581.7C478.97 581.172 478.866 580.724 478.658 580.356C478.45 579.988 478.178 579.716 477.842 579.54C477.506 579.356 477.142 579.264 476.75 579.264C476.35 579.264 475.982 579.356 475.646 579.54C475.318 579.716 475.054 579.988 474.854 580.356C474.654 580.724 474.554 581.172 474.554 581.7C474.554 582.236 474.65 582.688 474.842 583.056C475.042 583.424 475.306 583.7 475.634 583.884C475.962 584.06 476.322 584.148 476.714 584.148ZM487.354 578.424V585H486.262V584.028C486.054 584.364 485.762 584.628 485.386 584.82C485.018 585.004 484.61 585.096 484.162 585.096C483.65 585.096 483.19 584.992 482.782 584.784C482.374 584.568 482.05 584.248 481.81 583.824C481.578 583.4 481.462 582.884 481.462 582.276V578.424H482.542V582.132C482.542 582.78 482.706 583.28 483.034 583.632C483.362 583.976 483.81 584.148 484.378 584.148C484.962 584.148 485.422 583.968 485.758 583.608C486.094 583.248 486.262 582.724 486.262 582.036V578.424H487.354ZM491.989 581.7C491.989 581.02 492.125 580.428 492.397 579.924C492.669 579.412 493.045 579.016 493.525 578.736C494.013 578.456 494.569 578.316 495.193 578.316C496.001 578.316 496.665 578.512 497.185 578.904C497.713 579.296 498.061 579.84 498.229 580.536H497.053C496.941 580.136 496.721 579.82 496.393 579.588C496.073 579.356 495.673 579.24 495.193 579.24C494.569 579.24 494.065 579.456 493.681 579.888C493.297 580.312 493.105 580.916 493.105 581.7C493.105 582.492 493.297 583.104 493.681 583.536C494.065 583.968 494.569 584.184 495.193 584.184C495.673 584.184 496.073 584.072 496.393 583.848C496.713 583.624 496.933 583.304 497.053 582.888H498.229C498.053 583.56 497.701 584.1 497.173 584.508C496.645 584.908 495.985 585.108 495.193 585.108C494.569 585.108 494.013 584.968 493.525 584.688C493.045 584.408 492.669 584.012 492.397 583.5C492.125 582.988 491.989 582.388 491.989 581.7ZM500.778 576.12V585H499.686V576.12H500.778ZM505.507 585.108C504.891 585.108 504.331 584.968 503.827 584.688C503.331 584.408 502.939 584.012 502.651 583.5C502.371 582.98 502.231 582.38 502.231 581.7C502.231 581.028 502.375 580.436 502.663 579.924C502.959 579.404 503.359 579.008 503.863 578.736C504.367 578.456 504.931 578.316 505.555 578.316C506.179 578.316 506.743 578.456 507.247 578.736C507.751 579.008 508.147 579.4 508.435 579.912C508.731 580.424 508.879 581.02 508.879 581.7C508.879 582.38 508.727 582.98 508.423 583.5C508.127 584.012 507.723 584.408 507.211 584.688C506.699 584.968 506.131 585.108 505.507 585.108ZM505.507 584.148C505.899 584.148 506.267 584.056 506.611 583.872C506.955 583.688 507.231 583.412 507.439 583.044C507.655 582.676 507.763 582.228 507.763 581.7C507.763 581.172 507.659 580.724 507.451 580.356C507.243 579.988 506.971 579.716 506.635 579.54C506.299 579.356 505.935 579.264 505.543 579.264C505.143 579.264 504.775 579.356 504.439 579.54C504.111 579.716 503.847 579.988 503.647 580.356C503.447 580.724 503.347 581.172 503.347 581.7C503.347 582.236 503.443 582.688 503.635 583.056C503.835 583.424 504.099 583.7 504.427 583.884C504.755 584.06 505.115 584.148 505.507 584.148ZM512.643 585.108C512.139 585.108 511.687 585.024 511.287 584.856C510.887 584.68 510.571 584.44 510.339 584.136C510.107 583.824 509.979 583.468 509.955 583.068H511.083C511.115 583.396 511.267 583.664 511.539 583.872C511.819 584.08 512.183 584.184 512.631 584.184C513.047 584.184 513.375 584.092 513.615 583.908C513.855 583.724 513.975 583.492 513.975 583.212C513.975 582.924 513.847 582.712 513.591 582.576C513.335 582.432 512.939 582.292 512.403 582.156C511.915 582.028 511.515 581.9 511.203 581.772C510.899 581.636 510.635 581.44 510.411 581.184C510.195 580.92 510.087 580.576 510.087 580.152C510.087 579.816 510.187 579.508 510.387 579.228C510.587 578.948 510.871 578.728 511.239 578.568C511.607 578.4 512.027 578.316 512.499 578.316C513.227 578.316 513.815 578.5 514.263 578.868C514.711 579.236 514.951 579.74 514.983 580.38H513.891C513.867 580.036 513.727 579.76 513.471 579.552C513.223 579.344 512.887 579.24 512.463 579.24C512.071 579.24 511.759 579.324 511.527 579.492C511.295 579.66 511.179 579.88 511.179 580.152C511.179 580.368 511.247 580.548 511.383 580.692C511.527 580.828 511.703 580.94 511.911 581.028C512.127 581.108 512.423 581.2 512.799 581.304C513.271 581.432 513.655 581.56 513.951 581.688C514.247 581.808 514.499 581.992 514.707 582.24C514.923 582.488 515.035 582.812 515.043 583.212C515.043 583.572 514.943 583.896 514.743 584.184C514.543 584.472 514.259 584.7 513.891 584.868C513.531 585.028 513.115 585.108 512.643 585.108ZM522.584 581.46C522.584 581.668 522.572 581.888 522.548 582.12H517.292C517.332 582.768 517.552 583.276 517.952 583.644C518.36 584.004 518.852 584.184 519.428 584.184C519.9 584.184 520.292 584.076 520.604 583.86C520.924 583.636 521.148 583.34 521.276 582.972H522.452C522.276 583.604 521.924 584.12 521.396 584.52C520.868 584.912 520.212 585.108 519.428 585.108C518.804 585.108 518.244 584.968 517.748 584.688C517.26 584.408 516.876 584.012 516.596 583.5C516.316 582.98 516.176 582.38 516.176 581.7C516.176 581.02 516.312 580.424 516.584 579.912C516.856 579.4 517.236 579.008 517.724 578.736C518.22 578.456 518.788 578.316 519.428 578.316C520.052 578.316 520.604 578.452 521.084 578.724C521.564 578.996 521.932 579.372 522.188 579.852C522.452 580.324 522.584 580.86 522.584 581.46ZM521.456 581.232C521.456 580.816 521.364 580.46 521.18 580.164C520.996 579.86 520.744 579.632 520.424 579.48C520.112 579.32 519.764 579.24 519.38 579.24C518.828 579.24 518.356 579.416 517.964 579.768C517.58 580.12 517.36 580.608 517.304 581.232H521.456ZM525.118 579.492C525.31 579.116 525.582 578.824 525.934 578.616C526.294 578.408 526.73 578.304 527.242 578.304V579.432H526.954C525.73 579.432 525.118 580.096 525.118 581.424V585H524.026V578.424H525.118V579.492ZM533.033 579.324V583.2C533.033 583.52 533.101 583.748 533.237 583.884C533.373 584.012 533.609 584.076 533.945 584.076H534.749V585H533.765C533.157 585 532.701 584.86 532.397 584.58C532.093 584.3 531.941 583.84 531.941 583.2V579.324H531.089V578.424H531.941V576.768H533.033V578.424H534.749V579.324H533.033ZM538.94 585.108C538.324 585.108 537.764 584.968 537.26 584.688C536.764 584.408 536.372 584.012 536.084 583.5C535.804 582.98 535.664 582.38 535.664 581.7C535.664 581.028 535.808 580.436 536.096 579.924C536.392 579.404 536.792 579.008 537.296 578.736C537.8 578.456 538.364 578.316 538.988 578.316C539.612 578.316 540.176 578.456 540.68 578.736C541.184 579.008 541.58 579.4 541.868 579.912C542.164 580.424 542.312 581.02 542.312 581.7C542.312 582.38 542.16 582.98 541.856 583.5C541.56 584.012 541.156 584.408 540.644 584.688C540.132 584.968 539.564 585.108 538.94 585.108ZM538.94 584.148C539.332 584.148 539.7 584.056 540.044 583.872C540.388 583.688 540.664 583.412 540.872 583.044C541.088 582.676 541.196 582.228 541.196 581.7C541.196 581.172 541.092 580.724 540.884 580.356C540.676 579.988 540.404 579.716 540.068 579.54C539.732 579.356 539.368 579.264 538.976 579.264C538.576 579.264 538.208 579.356 537.872 579.54C537.544 579.716 537.28 579.988 537.08 580.356C536.88 580.724 536.78 581.172 536.78 581.7C536.78 582.236 536.876 582.688 537.068 583.056C537.268 583.424 537.532 583.7 537.86 583.884C538.188 584.06 538.548 584.148 538.94 584.148ZM548.279 579.324V583.2C548.279 583.52 548.347 583.748 548.483 583.884C548.619 584.012 548.855 584.076 549.191 584.076H549.995V585H549.011C548.403 585 547.947 584.86 547.643 584.58C547.339 584.3 547.187 583.84 547.187 583.2V579.324H546.335V578.424H547.187V576.768H548.279V578.424H549.995V579.324H548.279ZM554.583 578.304C555.079 578.304 555.527 578.412 555.927 578.628C556.327 578.836 556.639 579.152 556.863 579.576C557.095 580 557.211 580.516 557.211 581.124V585H556.131V581.28C556.131 580.624 555.967 580.124 555.639 579.78C555.311 579.428 554.863 579.252 554.295 579.252C553.719 579.252 553.259 579.432 552.915 579.792C552.579 580.152 552.411 580.676 552.411 581.364V585H551.319V576.12H552.411V579.36C552.627 579.024 552.923 578.764 553.299 578.58C553.683 578.396 554.111 578.304 554.583 578.304ZM564.994 581.46C564.994 581.668 564.982 581.888 564.958 582.12H559.702C559.742 582.768 559.962 583.276 560.362 583.644C560.77 584.004 561.262 584.184 561.838 584.184C562.31 584.184 562.702 584.076 563.014 583.86C563.334 583.636 563.558 583.34 563.686 582.972H564.862C564.686 583.604 564.334 584.12 563.806 584.52C563.278 584.912 562.622 585.108 561.838 585.108C561.214 585.108 560.654 584.968 560.158 584.688C559.67 584.408 559.286 584.012 559.006 583.5C558.726 582.98 558.586 582.38 558.586 581.7C558.586 581.02 558.722 580.424 558.994 579.912C559.266 579.4 559.646 579.008 560.134 578.736C560.63 578.456 561.198 578.316 561.838 578.316C562.462 578.316 563.014 578.452 563.494 578.724C563.974 578.996 564.342 579.372 564.598 579.852C564.862 580.324 564.994 580.86 564.994 581.46ZM563.866 581.232C563.866 580.816 563.774 580.46 563.59 580.164C563.406 579.86 563.154 579.632 562.834 579.48C562.522 579.32 562.174 579.24 561.79 579.24C561.238 579.24 560.766 579.416 560.374 579.768C559.99 580.12 559.77 580.608 559.714 581.232H563.866ZM569.227 581.688C569.227 581.016 569.363 580.428 569.635 579.924C569.907 579.412 570.279 579.016 570.751 578.736C571.231 578.456 571.763 578.316 572.347 578.316C572.923 578.316 573.423 578.44 573.847 578.688C574.271 578.936 574.587 579.248 574.795 579.624V578.424H575.899V585H574.795V583.776C574.579 584.16 574.255 584.48 573.823 584.736C573.399 584.984 572.903 585.108 572.335 585.108C571.751 585.108 571.223 584.964 570.751 584.676C570.279 584.388 569.907 583.984 569.635 583.464C569.363 582.944 569.227 582.352 569.227 581.688ZM574.795 581.7C574.795 581.204 574.695 580.772 574.495 580.404C574.295 580.036 574.023 579.756 573.679 579.564C573.343 579.364 572.971 579.264 572.563 579.264C572.155 579.264 571.783 579.36 571.447 579.552C571.111 579.744 570.843 580.024 570.643 580.392C570.443 580.76 570.343 581.192 570.343 581.688C570.343 582.192 570.443 582.632 570.643 583.008C570.843 583.376 571.111 583.66 571.447 583.86C571.783 584.052 572.155 584.148 572.563 584.148C572.971 584.148 573.343 584.052 573.679 583.86C574.023 583.66 574.295 583.376 574.495 583.008C574.695 582.632 574.795 582.196 574.795 581.7ZM577.336 581.688C577.336 581.016 577.472 580.428 577.744 579.924C578.016 579.412 578.388 579.016 578.86 578.736C579.34 578.456 579.876 578.316 580.468 578.316C580.98 578.316 581.456 578.436 581.896 578.676C582.336 578.908 582.672 579.216 582.904 579.6V576.12H584.008V585H582.904V583.764C582.688 584.156 582.368 584.48 581.944 584.736C581.52 584.984 581.024 585.108 580.456 585.108C579.872 585.108 579.34 584.964 578.86 584.676C578.388 584.388 578.016 583.984 577.744 583.464C577.472 582.944 577.336 582.352 577.336 581.688ZM582.904 581.7C582.904 581.204 582.804 580.772 582.604 580.404C582.404 580.036 582.132 579.756 581.788 579.564C581.452 579.364 581.08 579.264 580.672 579.264C580.264 579.264 579.892 579.36 579.556 579.552C579.22 579.744 578.952 580.024 578.752 580.392C578.552 580.76 578.452 581.192 578.452 581.688C578.452 582.192 578.552 582.632 578.752 583.008C578.952 583.376 579.22 583.66 579.556 583.86C579.892 584.052 580.264 584.148 580.672 584.148C581.08 584.148 581.452 584.052 581.788 583.86C582.132 583.66 582.404 583.376 582.604 583.008C582.804 582.632 582.904 582.196 582.904 581.7ZM588.302 583.992L590.342 578.424H591.506L588.926 585H587.654L585.074 578.424H586.25L588.302 583.992ZM598.58 581.46C598.58 581.668 598.568 581.888 598.544 582.12H593.288C593.328 582.768 593.548 583.276 593.948 583.644C594.356 584.004 594.848 584.184 595.424 584.184C595.896 584.184 596.288 584.076 596.6 583.86C596.92 583.636 597.144 583.34 597.272 582.972H598.448C598.272 583.604 597.92 584.12 597.392 584.52C596.864 584.912 596.208 585.108 595.424 585.108C594.8 585.108 594.24 584.968 593.744 584.688C593.256 584.408 592.872 584.012 592.592 583.5C592.312 582.98 592.172 582.38 592.172 581.7C592.172 581.02 592.308 580.424 592.58 579.912C592.852 579.4 593.232 579.008 593.72 578.736C594.216 578.456 594.784 578.316 595.424 578.316C596.048 578.316 596.6 578.452 597.08 578.724C597.56 578.996 597.928 579.372 598.184 579.852C598.448 580.324 598.58 580.86 598.58 581.46ZM597.452 581.232C597.452 580.816 597.36 580.46 597.176 580.164C596.992 579.86 596.74 579.632 596.42 579.48C596.108 579.32 595.76 579.24 595.376 579.24C594.824 579.24 594.352 579.416 593.96 579.768C593.576 580.12 593.356 580.608 593.3 581.232H597.452ZM603.226 578.304C604.026 578.304 604.674 578.548 605.17 579.036C605.666 579.516 605.914 580.212 605.914 581.124V585H604.834V581.28C604.834 580.624 604.67 580.124 604.342 579.78C604.014 579.428 603.566 579.252 602.998 579.252C602.422 579.252 601.962 579.432 601.618 579.792C601.282 580.152 601.114 580.676 601.114 581.364V585H600.022V578.424H601.114V579.36C601.33 579.024 601.622 578.764 601.99 578.58C602.366 578.396 602.778 578.304 603.226 578.304ZM609.029 579.324V583.2C609.029 583.52 609.097 583.748 609.233 583.884C609.369 584.012 609.605 584.076 609.941 584.076H610.745V585H609.761C609.153 585 608.697 584.86 608.393 584.58C608.089 584.3 607.937 583.84 607.937 583.2V579.324H607.085V578.424H607.937V576.768H609.029V578.424H610.745V579.324H609.029ZM617.901 578.424V585H616.809V584.028C616.601 584.364 616.309 584.628 615.933 584.82C615.565 585.004 615.157 585.096 614.709 585.096C614.197 585.096 613.737 584.992 613.329 584.784C612.921 584.568 612.597 584.248 612.357 583.824C612.125 583.4 612.009 582.884 612.009 582.276V578.424H613.089V582.132C613.089 582.78 613.253 583.28 613.581 583.632C613.909 583.976 614.357 584.148 614.925 584.148C615.509 584.148 615.969 583.968 616.305 583.608C616.641 583.248 616.809 582.724 616.809 582.036V578.424H617.901ZM620.836 579.492C621.028 579.116 621.3 578.824 621.652 578.616C622.012 578.408 622.448 578.304 622.96 578.304V579.432H622.672C621.448 579.432 620.836 580.096 620.836 581.424V585H619.744V578.424H620.836V579.492ZM630.221 581.46C630.221 581.668 630.209 581.888 630.185 582.12H624.929C624.969 582.768 625.189 583.276 625.589 583.644C625.997 584.004 626.489 584.184 627.065 584.184C627.537 584.184 627.929 584.076 628.241 583.86C628.561 583.636 628.785 583.34 628.913 582.972H630.089C629.913 583.604 629.561 584.12 629.033 584.52C628.505 584.912 627.849 585.108 627.065 585.108C626.441 585.108 625.881 584.968 625.385 584.688C624.897 584.408 624.513 584.012 624.233 583.5C623.953 582.98 623.813 582.38 623.813 581.7C623.813 581.02 623.949 580.424 624.221 579.912C624.493 579.4 624.873 579.008 625.361 578.736C625.857 578.456 626.425 578.316 627.065 578.316C627.689 578.316 628.241 578.452 628.721 578.724C629.201 578.996 629.569 579.372 629.825 579.852C630.089 580.324 630.221 580.86 630.221 581.46ZM629.093 581.232C629.093 580.816 629.001 580.46 628.817 580.164C628.633 579.86 628.381 579.632 628.061 579.48C627.749 579.32 627.401 579.24 627.017 579.24C626.465 579.24 625.993 579.416 625.601 579.768C625.217 580.12 624.997 580.608 624.941 581.232H629.093ZM636.194 579.324V583.2C636.194 583.52 636.262 583.748 636.398 583.884C636.534 584.012 636.77 584.076 637.105 584.076H637.91V585H636.926C636.318 585 635.862 584.86 635.558 584.58C635.254 584.3 635.102 583.84 635.102 583.2V579.324H634.25V578.424H635.102V576.768H636.194V578.424H637.91V579.324H636.194ZM642.497 578.304C642.993 578.304 643.441 578.412 643.841 578.628C644.241 578.836 644.553 579.152 644.777 579.576C645.009 580 645.125 580.516 645.125 581.124V585H644.045V581.28C644.045 580.624 643.881 580.124 643.553 579.78C643.225 579.428 642.777 579.252 642.209 579.252C641.633 579.252 641.173 579.432 640.829 579.792C640.493 580.152 640.325 580.676 640.325 581.364V585H639.233V576.12H640.325V579.36C640.541 579.024 640.837 578.764 641.213 578.58C641.597 578.396 642.025 578.304 642.497 578.304ZM646.5 581.688C646.5 581.016 646.636 580.428 646.908 579.924C647.18 579.412 647.552 579.016 648.024 578.736C648.504 578.456 649.036 578.316 649.62 578.316C650.196 578.316 650.696 578.44 651.12 578.688C651.544 578.936 651.86 579.248 652.068 579.624V578.424H653.172V585H652.068V583.776C651.852 584.16 651.528 584.48 651.096 584.736C650.672 584.984 650.176 585.108 649.608 585.108C649.024 585.108 648.496 584.964 648.024 584.676C647.552 584.388 647.18 583.984 646.908 583.464C646.636 582.944 646.5 582.352 646.5 581.688ZM652.068 581.7C652.068 581.204 651.968 580.772 651.768 580.404C651.568 580.036 651.296 579.756 650.952 579.564C650.616 579.364 650.244 579.264 649.836 579.264C649.428 579.264 649.056 579.36 648.72 579.552C648.384 579.744 648.116 580.024 647.916 580.392C647.716 580.76 647.616 581.192 647.616 581.688C647.616 582.192 647.716 582.632 647.916 583.008C648.116 583.376 648.384 583.66 648.72 583.86C649.056 584.052 649.428 584.148 649.836 584.148C650.244 584.148 650.616 584.052 650.952 583.86C651.296 583.66 651.568 583.376 651.768 583.008C651.968 582.632 652.068 582.196 652.068 581.7ZM656.35 579.324V583.2C656.35 583.52 656.418 583.748 656.554 583.884C656.69 584.012 656.926 584.076 657.262 584.076H658.066V585H657.082C656.474 585 656.018 584.86 655.714 584.58C655.41 584.3 655.258 583.84 655.258 583.2V579.324H654.406V578.424H655.258V576.768H656.35V578.424H658.066V579.324H656.35ZM662.18 581.688C662.18 581.016 662.316 580.428 662.588 579.924C662.86 579.412 663.232 579.016 663.704 578.736C664.184 578.456 664.716 578.316 665.3 578.316C665.876 578.316 666.376 578.44 666.8 578.688C667.224 578.936 667.54 579.248 667.748 579.624V578.424H668.852V585H667.748V583.776C667.532 584.16 667.208 584.48 666.776 584.736C666.352 584.984 665.856 585.108 665.288 585.108C664.704 585.108 664.176 584.964 663.704 584.676C663.232 584.388 662.86 583.984 662.588 583.464C662.316 582.944 662.18 582.352 662.18 581.688ZM667.748 581.7C667.748 581.204 667.648 580.772 667.448 580.404C667.248 580.036 666.976 579.756 666.632 579.564C666.296 579.364 665.924 579.264 665.516 579.264C665.108 579.264 664.736 579.36 664.4 579.552C664.064 579.744 663.796 580.024 663.596 580.392C663.396 580.76 663.296 581.192 663.296 581.688C663.296 582.192 663.396 582.632 663.596 583.008C663.796 583.376 664.064 583.66 664.4 583.86C664.736 584.052 665.108 584.148 665.516 584.148C665.924 584.148 666.296 584.052 666.632 583.86C666.976 583.66 667.248 583.376 667.448 583.008C667.648 582.632 667.748 582.196 667.748 581.7ZM679.457 578.424L677.405 585H676.277L674.693 579.78L673.109 585H671.981L669.917 578.424H671.033L672.545 583.944L674.177 578.424H675.293L676.889 583.956L678.377 578.424H679.457ZM680.133 581.688C680.133 581.016 680.269 580.428 680.541 579.924C680.813 579.412 681.185 579.016 681.657 578.736C682.137 578.456 682.669 578.316 683.253 578.316C683.829 578.316 684.329 578.44 684.753 578.688C685.177 578.936 685.493 579.248 685.701 579.624V578.424H686.805V585H685.701V583.776C685.485 584.16 685.161 584.48 684.729 584.736C684.305 584.984 683.809 585.108 683.241 585.108C682.657 585.108 682.129 584.964 681.657 584.676C681.185 584.388 680.813 583.984 680.541 583.464C680.269 582.944 680.133 582.352 680.133 581.688ZM685.701 581.7C685.701 581.204 685.601 580.772 685.401 580.404C685.201 580.036 684.929 579.756 684.585 579.564C684.249 579.364 683.877 579.264 683.469 579.264C683.061 579.264 682.689 579.36 682.353 579.552C682.017 579.744 681.749 580.024 681.549 580.392C681.349 580.76 681.249 581.192 681.249 581.688C681.249 582.192 681.349 582.632 681.549 583.008C681.749 583.376 682.017 583.66 682.353 583.86C682.689 584.052 683.061 584.148 683.469 584.148C683.877 584.148 684.249 584.052 684.585 583.86C684.929 583.66 685.201 583.376 685.401 583.008C685.601 582.632 685.701 582.196 685.701 581.7ZM689.215 577.356C689.007 577.356 688.831 577.284 688.687 577.14C688.543 576.996 688.471 576.82 688.471 576.612C688.471 576.404 688.543 576.228 688.687 576.084C688.831 575.94 689.007 575.868 689.215 575.868C689.415 575.868 689.583 575.94 689.719 576.084C689.863 576.228 689.935 576.404 689.935 576.612C689.935 576.82 689.863 576.996 689.719 577.14C689.583 577.284 689.415 577.356 689.215 577.356ZM689.743 578.424V585H688.651V578.424H689.743ZM692.936 579.324V583.2C692.936 583.52 693.004 583.748 693.14 583.884C693.276 584.012 693.512 584.076 693.848 584.076H694.652V585H693.668C693.06 585 692.604 584.86 692.3 584.58C691.996 584.3 691.844 583.84 691.844 583.2V579.324H690.992V578.424H691.844V576.768H692.936V578.424H694.652V579.324H692.936ZM698.303 585.108C697.799 585.108 697.347 585.024 696.947 584.856C696.547 584.68 696.231 584.44 695.999 584.136C695.767 583.824 695.639 583.468 695.615 583.068H696.743C696.775 583.396 696.927 583.664 697.199 583.872C697.479 584.08 697.843 584.184 698.291 584.184C698.707 584.184 699.035 584.092 699.275 583.908C699.515 583.724 699.635 583.492 699.635 583.212C699.635 582.924 699.507 582.712 699.251 582.576C698.995 582.432 698.599 582.292 698.063 582.156C697.575 582.028 697.175 581.9 696.863 581.772C696.559 581.636 696.295 581.44 696.071 581.184C695.855 580.92 695.747 580.576 695.747 580.152C695.747 579.816 695.847 579.508 696.047 579.228C696.247 578.948 696.531 578.728 696.899 578.568C697.267 578.4 697.687 578.316 698.159 578.316C698.887 578.316 699.475 578.5 699.923 578.868C700.371 579.236 700.611 579.74 700.643 580.38H699.551C699.527 580.036 699.387 579.76 699.131 579.552C698.883 579.344 698.547 579.24 698.123 579.24C697.731 579.24 697.419 579.324 697.187 579.492C696.955 579.66 696.839 579.88 696.839 580.152C696.839 580.368 696.907 580.548 697.043 580.692C697.187 580.828 697.363 580.94 697.571 581.028C697.787 581.108 698.083 581.2 698.459 581.304C698.931 581.432 699.315 581.56 699.611 581.688C699.907 581.808 700.159 581.992 700.367 582.24C700.583 582.488 700.695 582.812 700.703 583.212C700.703 583.572 700.603 583.896 700.403 584.184C700.203 584.472 699.919 584.7 699.551 584.868C699.191 585.028 698.775 585.108 698.303 585.108ZM703.66 576.636L703.528 582.636H702.616L702.484 576.636H703.66ZM703.12 585.072C702.912 585.072 702.736 585 702.592 584.856C702.448 584.712 702.376 584.536 702.376 584.328C702.376 584.12 702.448 583.944 702.592 583.8C702.736 583.656 702.912 583.584 703.12 583.584C703.32 583.584 703.488 583.656 703.624 583.8C703.768 583.944 703.84 584.12 703.84 584.328C703.84 584.536 703.768 584.712 703.624 584.856C703.488 585 703.32 585.072 703.12 585.072Z" fill="black"/>
<rect width="966" height="543" fill="#D9D9D9"/>
</svg>
