<svg width="25" height="25" viewBox="0 0 25 25" fill="none" xmlns="http://www.w3.org/2000/svg">
<path d="M12.5 0C5.60782 0 0 5.60782 0 12.5C0 19.3922 5.60782 25 12.5 25C19.3922 25 25 19.3922 25 12.5C25 5.60782 19.3922 0 12.5 0ZM18.9552 15.1188C18.9552 17.2371 17.2371 18.9552 15.1188 18.9552H9.88457C7.76621 18.9552 6.04817 17.2371 6.04817 15.1188V9.88457C6.04817 7.76621 7.76621 6.04817 9.88457 6.04817H15.1188C17.2371 6.04817 18.9552 7.76621 18.9552 9.88457V15.1188Z" fill="white"/>
<path d="M12.5001 10.7141C11.5156 10.7141 10.7144 11.5153 10.7144 12.4998C10.7144 13.4843 11.5156 14.2855 12.5001 14.2855C13.4846 14.2855 14.2858 13.4843 14.2858 12.4998C14.2858 11.5153 13.4846 10.7141 12.5001 10.7141Z" fill="white"/>
<path d="M15.1399 7.14282H9.86016C8.36051 7.14282 7.14289 8.36043 7.14289 9.86009V15.1398C7.14289 16.6395 8.36051 17.8571 9.86016 17.8571H15.1399C16.6396 17.8571 17.8572 16.6395 17.8572 15.1398V9.86009C17.8572 8.36043 16.6396 7.14282 15.1399 7.14282ZM12.5912 15.6489C10.8026 15.6489 9.34766 14.194 9.34766 12.4054C9.34766 10.6168 10.8026 9.16185 12.5912 9.16185C14.3798 9.16185 15.8347 10.6168 15.8347 12.4054C15.8347 14.194 14.3798 15.6489 12.5912 15.6489ZM16.0239 9.71563C15.5974 9.71563 15.2534 9.36823 15.2534 8.94516C15.2534 8.52209 15.5974 8.1747 16.0239 8.1747C16.4504 8.1747 16.7943 8.52209 16.7943 8.94516C16.7943 9.36823 16.4504 9.71563 16.0239 9.71563Z" fill="white"/>
</svg>
