<svg width="347" height="32" viewBox="0 0 347 32" fill="none" xmlns="http://www.w3.org/2000/svg">
<path d="M20.7539 0.969999C31.4219 0.969999 40.9559 4.876 40.9559 15.544V17.056C40.9559 27.724 31.4219 31.63 20.7539 31.63C10.1279 31.63 0.551938 27.724 0.551938 17.056V15.544C0.551938 4.876 10.1279 0.969999 20.7539 0.969999ZM35.1599 16.93V15.67C35.1599 7.732 28.1039 6.514 20.7539 6.514C13.4039 6.514 6.38994 7.732 6.38994 15.67V16.93C6.38994 24.868 13.4039 26.086 20.7539 26.086C28.1039 26.086 35.1599 24.868 35.1599 16.93ZM75.7651 1.6H81.5611V18.442C81.5611 29.11 72.3211 31.63 62.5771 31.63C52.8331 31.63 43.5931 29.11 43.5931 18.442V1.6H49.4311V19.072C49.4311 25.498 56.9071 26.086 62.5771 26.086C68.2471 26.086 75.7651 25.498 75.7651 19.072V1.6ZM113.75 22.264L124.544 31H116.606L105.896 22.432H91.1958V31H85.3578V1.6H111.986C117.74 1.6 123.032 6.262 123.032 12.016C123.032 17.182 118.79 21.466 113.75 22.264ZM91.1958 17.224H111.692C114.59 17.224 117.194 14.872 117.194 12.016C117.194 9.118 114.59 6.808 111.692 6.808H91.1958V17.224ZM165.963 13.276C174.195 14.368 183.687 14.452 183.687 22.39C183.687 31.588 173.061 31.924 162.939 31.504C159.243 31.336 150.885 30.58 147.945 30.16V24.364C150.717 24.994 159.243 25.834 162.939 26.002C168.105 26.212 177.891 26.548 177.681 22.39C177.555 20.08 170.331 19.66 164.745 18.946C156.555 17.854 147.063 18.106 147.063 10.168C147.063 0.969999 157.689 0.633998 167.811 1.054C171.465 1.222 179.235 1.978 182.175 2.398V8.194C179.403 7.564 171.465 6.724 167.811 6.556C162.645 6.346 152.775 6.01 153.069 10.168C153.069 12.31 160.377 12.52 165.963 13.276ZM223.288 1.6V7.102H206.908V31H201.07V7.102H184.69V1.6H223.288ZM243.879 0.969999C254.547 0.969999 264.081 4.876 264.081 15.544V17.056C264.081 27.724 254.547 31.63 243.879 31.63C233.253 31.63 223.677 27.724 223.677 17.056V15.544C223.677 4.876 233.253 0.969999 243.879 0.969999ZM258.285 16.93V15.67C258.285 7.732 251.229 6.514 243.879 6.514C236.529 6.514 229.515 7.732 229.515 15.67V16.93C229.515 24.868 236.529 26.086 243.879 26.086C251.229 26.086 258.285 24.868 258.285 16.93ZM295.572 22.264L306.366 31H298.428L287.718 22.432H273.018V31H267.18V1.6H293.808C299.562 1.6 304.854 6.262 304.854 12.016C304.854 17.182 300.612 21.466 295.572 22.264ZM273.018 17.224H293.514C296.412 17.224 299.016 14.872 299.016 12.016C299.016 9.118 296.412 6.808 293.514 6.808H273.018V17.224ZM346.928 1.6L328.112 21.802V31H322.274V21.802L303.458 1.6H311.438L325.214 16.384L338.99 1.6H346.928Z" fill="white"/>
</svg>
