<svg width="623" height="91" viewBox="0 0 623 91" fill="none" xmlns="http://www.w3.org/2000/svg">
<path d="M28.728 1.7084C34.482 1.7084 39.774 6.3704 39.774 12.1244C39.774 17.8784 34.482 22.5404 28.728 22.5404H7.938V31.1084H2.1V1.7084H28.728ZM28.434 17.3324C31.332 17.3324 33.936 14.9804 33.936 12.1244C33.936 9.2264 31.332 6.9164 28.434 6.9164H7.938V17.3324H28.434ZM70.8104 22.3724L81.6044 31.1084H73.6664L62.9564 22.5404H48.2564V31.1084H42.4184V1.7084H69.0464C74.8004 1.7084 80.0924 6.3704 80.0924 12.1244C80.0924 17.2904 75.8504 21.5744 70.8104 22.3724ZM48.2564 17.3324H68.7524C71.6504 17.3324 74.2544 14.9804 74.2544 12.1244C74.2544 9.2264 71.6504 6.9164 68.7524 6.9164H48.2564V17.3324ZM117.733 7.2104H89.8872V13.8044H116.221V19.0124H89.8872V25.6064H117.733V31.1084H84.0492V1.7084H117.733V7.2104ZM160.019 1.7084H165.857V31.1084H160.019V8.3864L146.831 28.9664V29.0084L145.487 31.1084H141.497L140.111 29.0084V28.9664L126.965 8.3864V31.1084H121.127V1.7084H126.965H129.401L143.471 23.7164L157.583 1.7084H160.019ZM175.897 31.1084H170.059V1.7084H175.897V31.1084ZM211.818 1.7084H217.614V18.5504C217.614 29.2184 208.374 31.7384 198.63 31.7384C188.886 31.7384 179.646 29.2184 179.646 18.5504V1.7084H185.484V19.1804C185.484 25.6064 192.96 26.1944 198.63 26.1944C204.3 26.1944 211.818 25.6064 211.818 19.1804V1.7084ZM260.303 1.7084H266.141V31.1084H260.303V8.3864L247.115 28.9664V29.0084L245.771 31.1084H241.781L240.395 29.0084V28.9664L227.249 8.3864V31.1084H221.411V1.7084H227.249H229.685L243.755 23.7164L257.867 1.7084H260.303ZM40.992 46.7084H46.83V76.1084H40.992V53.3864L27.804 73.9664V74.0084L26.46 76.1084H22.47L21.084 74.0084V73.9664L7.938 53.3864V76.1084H2.1V46.7084H7.938H10.374L24.444 68.7164L38.556 46.7084H40.992ZM87.8236 76.1084L83.5396 69.3884H59.6416L55.3576 76.1084H48.6376L67.3276 46.7084H75.8956L94.5856 76.1084H87.8236ZM63.1696 63.8444H80.0536L71.6116 50.5724L63.1696 63.8444ZM127.808 46.7084V52.2104H111.428V76.1084H105.59V52.2104H89.21V46.7084H127.808ZM163.63 52.2104H135.784V58.8044H162.118V64.0124H135.784V70.6064H163.63V76.1084H129.946V46.7084H163.63V52.2104ZM195.416 67.3724L206.21 76.1084H198.272L187.562 67.5404H172.862V76.1084H167.024V46.7084H193.652C199.406 46.7084 204.698 51.3704 204.698 57.1244C204.698 62.2904 200.456 66.5744 195.416 67.3724ZM172.862 62.3324H193.358C196.256 62.3324 198.86 59.9804 198.86 57.1244C198.86 54.2264 196.256 51.9164 193.358 51.9164H172.862V62.3324ZM214.493 76.1084H208.655V46.7084H214.493V76.1084ZM255.496 76.1084L251.212 69.3884H227.314L223.03 76.1084H216.31L235 46.7084H243.568L262.258 76.1084H255.496ZM230.842 63.8444H247.726L239.284 50.5724L230.842 63.8444ZM269.905 70.6064H295.609V76.1084H264.067V46.7084H269.905V70.6064ZM315.674 58.3844C323.906 59.4764 333.398 59.5604 333.398 67.4984C333.398 76.6964 322.772 77.0324 312.65 76.6124C308.954 76.4444 300.596 75.6884 297.656 75.2684V69.4724C300.428 70.1024 308.954 70.9424 312.65 71.1104C317.816 71.3204 327.602 71.6564 327.392 67.4984C327.266 65.1884 320.042 64.7684 314.456 64.0544C306.266 62.9624 296.774 63.2144 296.774 55.2764C296.774 46.0784 307.4 45.7424 317.522 46.1624C321.176 46.3304 328.946 47.0864 331.886 47.5064V53.3024C329.114 52.6724 321.176 51.8324 317.522 51.6644C312.356 51.4544 302.486 51.1184 302.78 55.2764C302.78 57.4184 310.088 57.6284 315.674 58.3844Z" fill="white"/>
</svg>
