<svg width="265" height="14" viewBox="0 0 265 14" fill="none" xmlns="http://www.w3.org/2000/svg">
<path d="M10.8653 1.2084C13.1943 1.2084 15.3363 3.0954 15.3363 5.4244C15.3363 7.7534 13.1943 9.6404 10.8653 9.6404H2.4503V13.1084H0.0873047V1.2084H10.8653ZM10.7463 7.5324C11.9193 7.5324 12.9733 6.5804 12.9733 5.4244C12.9733 4.2514 11.9193 3.3164 10.7463 3.3164H2.4503V7.5324H10.7463ZM29.2416 1.2084H31.5876V8.0254C31.5876 12.3434 27.8476 13.3634 23.9036 13.3634C19.9596 13.3634 16.2196 12.3434 16.2196 8.0254V1.2084H18.5826V8.2804C18.5826 10.8814 21.6086 11.1194 23.9036 11.1194C26.1986 11.1194 29.2416 10.8814 29.2416 8.2804V1.2084ZM44.6164 9.5724L48.9854 13.1084H45.7724L41.4374 9.6404H35.4874V13.1084H33.1244V1.2084H43.9024C46.2314 1.2084 48.3734 3.0954 48.3734 5.4244C48.3734 7.5154 46.6564 9.2494 44.6164 9.5724ZM35.4874 7.5324H43.7834C44.9564 7.5324 46.0104 6.5804 46.0104 5.4244C46.0104 4.2514 44.9564 3.3164 43.7834 3.3164H35.4874V7.5324ZM63.609 3.4354H52.338V6.1044H62.997V8.2124H52.338V10.8814H63.609V13.1084H49.975V1.2084H63.609V3.4354ZM88.408 13.1084L86.674 10.3884H77.001L75.267 13.1084H72.547L80.112 1.2084H83.58L91.145 13.1084H88.408ZM78.429 8.1444H85.263L81.846 2.7724L78.429 8.1444ZM105.511 3.4354H94.2403V6.1044H104.899V8.2124H94.2403V10.8814H105.511V13.1084H91.8773V1.2084H105.511V3.4354ZM118.377 9.5724L122.746 13.1084H119.533L115.198 9.6404H109.248V13.1084H106.885V1.2084H117.663C119.992 1.2084 122.134 3.0954 122.134 5.4244C122.134 7.5154 120.417 9.2494 118.377 9.5724ZM109.248 7.5324H117.544C118.717 7.5324 119.771 6.5804 119.771 5.4244C119.771 4.2514 118.717 3.3164 117.544 3.3164H109.248V7.5324ZM131.454 0.953398C135.772 0.953398 139.631 2.5344 139.631 6.8524V7.4644C139.631 11.7824 135.772 13.3634 131.454 13.3634C127.153 13.3634 123.277 11.7824 123.277 7.4644V6.8524C123.277 2.5344 127.153 0.953398 131.454 0.953398ZM137.285 7.4134V6.9034C137.285 3.6904 134.429 3.1974 131.454 3.1974C128.479 3.1974 125.64 3.6904 125.64 6.9034V7.4134C125.64 10.6264 128.479 11.1194 131.454 11.1194C134.429 11.1194 137.285 10.6264 137.285 7.4134ZM150.932 1.2084C154.213 1.2084 157.12 3.8774 157.12 7.1584C157.12 10.4394 154.213 13.1084 150.932 13.1084H140.885V1.2084H150.932ZM150.932 10.8814C152.972 10.8814 154.774 9.2154 154.774 7.1584C154.774 5.1014 152.972 3.4354 150.932 3.4354H143.248V10.8814H150.932ZM173.529 1.2084L165.913 9.3854V13.1084H163.55V9.3854L155.934 1.2084H159.164L164.74 7.1924L170.316 1.2084H173.529ZM187.924 1.2084H190.287V13.1084H187.924H187.55L176.534 4.0814V13.1084H174.171V1.2084H176.891L187.924 10.2354V1.2084ZM206.877 13.1084L205.143 10.3884H195.47L193.736 13.1084H191.016L198.581 1.2084H202.049L209.614 13.1084H206.877ZM196.898 8.1444H203.732L200.315 2.7724L196.898 8.1444ZM226.088 1.2084H228.451V13.1084H226.088V3.9114L220.75 12.2414V12.2584L220.206 13.1084H218.591L218.03 12.2584V12.2414L212.709 3.9114V13.1084H210.346V1.2084H212.709H213.695L219.39 10.1164L225.102 1.2084H226.088ZM232.515 13.1084H230.152V1.2084H232.515V13.1084ZM242.158 3.1974C239.183 3.1974 236.089 4.3024 236.089 6.9034V7.4134C236.089 10.0144 239.183 11.1194 242.158 11.1194C245.133 11.1194 248.72 10.5584 248.72 10.5584V12.8704C248.72 12.8704 246.102 13.3634 242.158 13.3634C238.214 13.3634 233.726 11.7824 233.726 7.4644V6.8524C233.726 2.5344 238.214 0.953398 242.158 0.953398C246.102 0.953398 248.72 1.4464 248.72 1.4464V3.7584C248.72 3.7584 245.133 3.1974 242.158 3.1974ZM257.199 5.9344C260.531 6.3764 264.373 6.4104 264.373 9.6234C264.373 13.3464 260.072 13.4824 255.975 13.3124C254.479 13.2444 251.096 12.9384 249.906 12.7684V10.4224C251.028 10.6774 254.479 11.0174 255.975 11.0854C258.066 11.1704 262.027 11.3064 261.942 9.6234C261.891 8.6884 258.967 8.5184 256.706 8.2294C253.391 7.7874 249.549 7.8894 249.549 4.6764C249.549 0.953398 253.85 0.817398 257.947 0.987397C259.426 1.0554 262.571 1.3614 263.761 1.5314V3.8774C262.639 3.6224 259.426 3.2824 257.947 3.2144C255.856 3.1294 251.861 2.9934 251.98 4.6764C251.98 5.5434 254.938 5.6284 257.199 5.9344Z" fill="white"/>
</svg>
