<svg version="1.2" xmlns="http://www.w3.org/2000/svg" viewBox="0 0 1200 569" width="1200" height="569">
	<title>raptor-svg</title>
	<style>
		.s0 { fill: #000000 } 
	</style>
	<path id="Layer" class="s0" d="m815.7 278.9l-119.6 0.1c19.1 58.9 29 123.3 27.8 190.7-0.5 30-3.2 59.5-8 88.1-11.7-107.2-51.5-203.8-111-278.8-39.5-50-87.5-90.6-141.7-118.6h274.1l22.9-41.8h-272.3c-31.9 0-63 5-92.6 14.3-22 6.8-43.2 16-63.4 27.5-49.5 27.9-92.9 68.7-126.8 118.6 13.6-43.2 33-83.3 57.1-118.6 10.4-15.4 21.8-29.9 34-43.4 51.2-57.1 116.5-96.7 188.8-111.1 19.5-3.9 39.6-5.9 60-5.9h423.1q-76.2 139.5-152.4 279z"/>
	<g id="Layer">
	</g>
</svg>