<?xml version="1.0" encoding="UTF-8"?>
<svg id="Layer_1" data-name="Layer 1" xmlns="http://www.w3.org/2000/svg" version="1.1" viewBox="0 0 1200 780.88">
  <defs>
    <style>
      .cls-1 {
        fill: #000;
        stroke-width: 0px;
      }
    </style>
  </defs>
  <path class="cls-1" d="M815.71,278.95h-119.63c19.12,58.97,28.98,123.35,27.8,190.7-.52,30.02-3.22,59.5-7.98,88.14-11.65-107.23-51.54-203.75-111.04-278.84-39.43-49.96-87.46-90.58-141.61-118.58h274.02l22.97-41.79h-272.3c-31.95,0-63.08,4.98-92.65,14.32-21.99,6.79-43.21,16.02-63.38,27.47-49.5,27.9-92.87,68.73-126.78,118.58,13.55-43.17,32.95-83.26,57.07-118.58,10.43-15.38,21.76-29.91,33.98-43.38,51.19-57.06,116.51-96.73,188.83-111.05,19.49-3.92,39.59-5.94,60.01-5.94h423.05c-50.78,92.98-101.57,185.97-152.35,278.95Z"/>
  <g>
    <path class="cls-1" d="M424.65,649.11c-.39-3.97-1.57-7.47-3.47-10.57-1.9-3.03-4.54-5.52-8.05-7.34-3.45-1.82-7.39-2.69-11.97-2.69h-117.57c-6.8,0-13.14,2.02-19.23,6.13-6.02,4.11-10.36,9.49-12.93,16.09l-51.57,130.16h57.3l12.69-31.72,6.04-15.22,5.48-13.67h60.47l-5.48,13.67-6.32,15.96-12.34,30.98h57.37l47.49-119.45c1.72-4.24,2.49-8.35,2.1-12.32ZM291.15,695.1l13.17-33.13-16.94-8.35h73.91c1.82,0,3.09.67,3.96,2.02.87,1.35,1.04,2.9.32,4.65l-13.69,34.81h-60.74Z"/>
    <path class="cls-1" d="M1001.36,649.11c-.39-3.97-1.57-7.47-3.54-10.57-2.04-3.03-4.74-5.52-8.19-7.34-3.45-1.82-7.39-2.69-11.7-2.69h-123.43c-6.8,0-13.14,2.02-19.09,6.13-6.02,4.11-10.22,9.49-12.8,16.09l-38.73,96.96c-1.66,4.31-2.23,8.42-1.91,12.46.38,4.04,1.49,7.61,3.39,10.71,1.9,3.03,4.67,5.52,8.12,7.34,3.38,1.82,7.39,2.69,11.91,2.69h123.16c6.87,0,13.21-2.02,19.3-6.13,6.02-4.11,10.29-9.49,12.94-16.16l38.48-97.17c1.73-4.24,2.49-8.35,2.1-12.32ZM844.93,755.7c-1.75,0-3.03-.61-3.9-1.95-.87-1.35-1.04-2.9-.39-4.65l19.22-48.35,15.38-38.79-17.21-8.35h80.3c1.82,0,3.16.67,4.03,2.02.87,1.35.98,2.9.32,4.65-10.26,25.92-25.84,65.25-36.17,91.17v.07c-.55,1.28-1.45,2.22-2.62,3.03-1.22.74-2.48,1.15-3.76,1.15h-55.22Z"/>
    <path class="cls-1" d="M227.05,661.43l-14.54,36.56c-.82,2.02-2.13,4.92-4.4,7.95-.94,1.28-3.74,4.85-8.39,8.08-6.03,4.17-12.37,6.26-19.17,6.26h-13.2l32.42,60.6h-57.24c-15.31-28.62-30.63-57.17-45.94-85.79h55.22c1.21,0,2.47-.4,3.69-1.15.94-.61,1.69-1.35,2.18-2.15.24-.4.41-.74.5-.94.89-2.09,10.77-27.54,11.96-30.57.65-1.75.55-3.3-.25-4.65-.73-1.35-2.08-2.02-3.9-2.02h-80.64l16.87,8.35c-15.68,39.66-31.35,79.26-47.03,118.92H-2.11l60.51-152.38h147.13c4.51,0,8.53.88,11.97,2.69,1.15.61,5.15,2.9,8.05,7.34,6.08,9.43,2.16,21.08,1.5,22.89Z"/>
    <path class="cls-1" d="M1198.15,661.43l-14.54,36.56c-.82,2.02-2.13,4.92-4.4,7.95-.94,1.28-3.74,4.85-8.39,8.08-6.03,4.17-12.37,6.26-19.17,6.26h-13.2l32.42,60.6h-57.24c-15.31-28.62-30.63-57.17-45.94-85.79h55.22c1.21,0,2.47-.4,3.69-1.15.94-.61,1.69-1.35,2.18-2.15.24-.4.41-.74.5-.94.89-2.09,10.77-27.54,11.96-30.57.65-1.75.55-3.3-.25-4.65-.73-1.35-2.08-2.02-3.9-2.02h-80.64l16.87,8.35c-15.68,39.66-31.35,79.26-47.03,118.92h-57.3l60.51-152.38h147.13c4.51,0,8.53.88,11.97,2.69,1.15.61,5.15,2.9,8.05,7.34,6.08,9.43,2.16,21.08,1.5,22.89Z"/>
    <path class="cls-1" d="M788.23,628.5h-160.02c1.93,1.05,6.72,4.04,9.58,10.28,2.95,6.45,2.1,12.56,1.67,14.83h51.58l-50.39,127.27h50.84l34.19-85.79,13.17-33.13,3.37-8.35h62.09l10.04-25.12h-26.13Z"/>
    <path class="cls-1" d="M621.44,661.43l-14.54,36.56c-.82,2.02-2.13,4.92-4.4,7.95-.94,1.28-3.74,4.85-8.39,8.08-6.03,4.17-12.37,6.26-19.17,6.26h-70.43c-4.5-8.42-9.01-16.77-13.52-25.18h55.22c1.21,0,2.47-.4,3.69-1.15.94-.61,1.69-1.35,2.18-2.15.24-.4.41-.74.5-.94.89-2.09,10.77-27.54,11.96-30.57.66-1.75.55-3.3-.25-4.65-.73-1.35-2.08-2.02-3.9-2.02h-80.64l16.87,8.35c-15.68,39.66-31.35,79.26-47.03,118.92h-57.3l60.51-152.38h147.13c4.51,0,8.53.88,11.97,2.69,1.15.61,5.15,2.9,8.05,7.34,6.08,9.43,2.16,21.08,1.5,22.89Z"/>
  </g>
</svg>