<svg width="223" height="14" viewBox="0 0 223 14" fill="none" xmlns="http://www.w3.org/2000/svg">
<path d="M8.15506 6.248C11.2911 6.664 14.9071 6.696 14.9071 9.72C14.9071 13.224 10.8591 13.352 7.00306 13.192C5.59506 13.128 2.41106 12.84 1.29106 12.68V10.472C2.34706 10.712 5.59506 11.032 7.00306 11.096C8.97106 11.176 12.6991 11.304 12.6191 9.72C12.5711 8.84 9.81906 8.68 7.69106 8.408C4.57106 7.992 0.955063 8.088 0.955063 5.064C0.955063 1.56 5.00306 1.432 8.85906 1.592C10.2511 1.656 13.2111 1.944 14.3311 2.104V4.312C13.2751 4.072 10.2511 3.752 8.85906 3.688C6.89106 3.608 3.13106 3.48 3.24306 5.064C3.24306 5.88 6.02706 5.96 8.15506 6.248ZM28.1534 1.8H30.3614V8.216C30.3614 12.28 26.8414 13.24 23.1294 13.24C19.4174 13.24 15.8974 12.28 15.8974 8.216V1.8H18.1214V8.456C18.1214 10.904 20.9694 11.128 23.1294 11.128C25.2894 11.128 28.1534 10.904 28.1534 8.456V1.8ZM44.0318 7.288C45.1518 7.768 46.0478 8.792 46.0478 9.992C46.0478 11.656 44.4638 13 42.7998 13H31.8078V1.8H42.3358C43.9998 1.8 45.5678 3.144 45.5678 4.808C45.5678 5.832 44.9278 6.744 44.0318 7.288ZM42.1278 3.896H34.0318V6.344H42.0158C42.6878 6.344 43.3598 5.8 43.3598 5.128C43.3598 4.456 42.8158 3.896 42.1278 3.896ZM42.5918 10.904C43.2798 10.904 43.8238 10.344 43.8238 9.672C43.8238 9 43.1518 8.456 42.4798 8.456H34.0318V10.904H42.5918ZM60.0461 8.44H46.7501V6.344H60.0461V8.44ZM75.1184 1.8V3.896H68.8784V13H66.6544V3.896H60.4144V1.8H75.1184ZM82.9624 1.56C87.0264 1.56 90.6584 3.048 90.6584 7.112V7.688C90.6584 11.752 87.0264 13.24 82.9624 13.24C78.9144 13.24 75.2664 11.752 75.2664 7.688V7.112C75.2664 3.048 78.9144 1.56 82.9624 1.56ZM88.4504 7.64V7.16C88.4504 4.136 85.7624 3.672 82.9624 3.672C80.1624 3.672 77.4904 4.136 77.4904 7.16V7.64C77.4904 10.664 80.1624 11.128 82.9624 11.128C85.7624 11.128 88.4504 10.664 88.4504 7.64ZM105.509 1.8V3.896H99.2691V13H97.0451V3.896H90.8051V1.8H105.509ZM118.386 13L116.754 10.44H107.65L106.018 13H103.458L110.578 1.8H113.842L120.962 13H118.386ZM108.994 8.328H115.426L112.21 3.272L108.994 8.328ZM123.876 10.904H133.668V13H121.652V1.8H123.876V10.904ZM136.975 13H134.175V10.904H136.975V13ZM136.975 7.624H134.175V5.528H136.975V7.624ZM156.244 6.552C158.196 6.552 159.796 7.384 159.796 9.576C159.796 13.432 155.044 13.384 151.54 13.16C150.484 13.096 147.06 12.808 145.94 12.648V10.44C146.996 10.68 150.484 11 151.54 11.064C155.044 11.272 157.572 11.176 157.572 9.576C157.572 8.664 156.98 8.536 156.244 8.536H148.932V6.904L155.14 3.752H146.292V1.768H159.444V3.4H159.428H159.444L153.236 6.552H156.244ZM175.919 1.576C181.535 1.576 182.975 2.968 182.975 5.432V9.512C182.975 11.688 181.311 13 179.119 13H169.711V11.016H178.895C179.663 11.016 180.767 10.52 180.767 9.512V8.392H172.383C170.719 8.392 168.895 7.976 168.895 5.496C168.895 2.968 170.335 1.576 175.919 1.576ZM180.767 6.408V5.544C180.767 4.2 180.479 3.672 175.823 3.672C171.263 3.672 171.119 4.2 171.119 5.352C171.119 6.296 171.775 6.408 172.239 6.408H180.767ZM191.232 1.576C196.848 1.576 198.288 2.968 198.288 5.432V9.512C198.288 11.688 196.624 13 194.432 13H185.024V11.016H194.208C194.976 11.016 196.08 10.52 196.08 9.512V8.392H187.696C186.032 8.392 184.208 7.976 184.208 5.496C184.208 2.968 185.648 1.576 191.232 1.576ZM196.08 6.408V5.544C196.08 4.2 195.792 3.672 191.136 3.672C186.576 3.672 186.432 4.2 186.432 5.352C186.432 6.296 187.088 6.408 187.552 6.408H196.08ZM206.544 1.576C212.16 1.576 213.6 2.968 213.6 5.432V9.512C213.6 11.688 211.936 13 209.744 13H200.336V11.016H209.52C210.288 11.016 211.392 10.52 211.392 9.512V8.392H203.008C201.344 8.392 199.52 7.976 199.52 5.496C199.52 2.968 200.96 1.576 206.544 1.576ZM211.392 6.408V5.544C211.392 4.2 211.104 3.672 206.448 3.672C201.888 3.672 201.744 4.2 201.744 5.352C201.744 6.296 202.4 6.408 202.864 6.408H211.392ZM218.353 12.216C217.766 12.2053 217.195 12.1573 216.641 12.072C216.086 11.976 215.638 11.848 215.297 11.688V10.328C215.659 10.4987 216.123 10.648 216.689 10.776C217.254 10.904 217.809 10.9733 218.353 10.984V7.752C217.649 7.56 217.073 7.34133 216.625 7.096C216.177 6.84 215.841 6.53067 215.617 6.168C215.403 5.80533 215.297 5.37333 215.297 4.872C215.297 4.34933 215.419 3.90133 215.665 3.528C215.921 3.15467 216.278 2.86133 216.737 2.648C217.195 2.424 217.734 2.296 218.353 2.264V0.855999H219.377V2.248C219.942 2.25867 220.454 2.32267 220.913 2.44C221.382 2.54667 221.809 2.68 222.193 2.84L221.761 4.024C221.419 3.88533 221.041 3.768 220.625 3.672C220.219 3.56533 219.803 3.496 219.377 3.464V6.68C220.081 6.88267 220.667 7.10133 221.137 7.336C221.606 7.56 221.958 7.84267 222.193 8.184C222.438 8.51467 222.561 8.94667 222.561 9.48C222.561 10.2267 222.283 10.8347 221.729 11.304C221.174 11.7627 220.39 12.0453 219.377 12.152V13.928H218.353V12.216ZM219.377 10.904C220.006 10.84 220.465 10.696 220.753 10.472C221.041 10.2373 221.185 9.93867 221.185 9.576C221.185 9.30933 221.131 9.09067 221.025 8.92C220.918 8.73867 220.731 8.584 220.465 8.456C220.209 8.328 219.846 8.20533 219.377 8.088V10.904ZM218.353 3.496C217.969 3.51733 217.654 3.58667 217.409 3.704C217.163 3.81067 216.977 3.95467 216.849 4.136C216.731 4.31733 216.673 4.52533 216.673 4.76C216.673 5.03733 216.721 5.27733 216.817 5.48C216.923 5.672 217.099 5.83733 217.345 5.976C217.59 6.104 217.926 6.22133 218.353 6.328V3.496Z" fill="black"/>
</svg>
