<svg width="15" height="20" viewBox="0 0 15 20" fill="none" xmlns="http://www.w3.org/2000/svg">
<path d="M15 17.1912C14.9607 14.6767 14.1774 12.3903 12.7846 10.735C11.3999 9.08967 9.52331 8.18359 7.49992 8.18359C5.47652 8.18359 3.59993 9.08967 2.21524 10.735C0.823772 12.3886 0.0409179 14.6718 0 17.1832C0.786818 17.5773 4.04278 19.095 7.49992 19.095C11.2383 19.095 14.2703 17.5862 15 17.1912Z" fill="black"/>
<path d="M7.49989 7.50162C9.57141 7.50162 11.2507 5.82232 11.2507 3.75081C11.2507 1.67929 9.57141 0 7.49989 0C5.42838 0 3.74908 1.67929 3.74908 3.75081C3.74908 5.82232 5.42838 7.50162 7.49989 7.50162Z" fill="black"/>
</svg>
