<svg width="25" height="25" viewBox="0 0 25 25" fill="none" xmlns="http://www.w3.org/2000/svg">
<path d="M12.5 0C5.60782 0 0 5.60782 0 12.5C0 19.3922 5.60782 25 12.5 25C19.3922 25 25 19.3922 25 12.5C25 5.60782 19.3922 0 12.5 0ZM18.9552 15.1188C18.9552 17.2371 17.2371 18.9552 15.1188 18.9552H9.88457C7.76621 18.9552 6.04817 17.2371 6.04817 15.1188V9.88457C6.04817 7.76621 7.76621 6.04817 9.88457 6.04817H15.1188C17.2371 6.04817 18.9552 7.76621 18.9552 9.88457V15.1188Z" fill="white"/>
<path d="M12.5001 10.7144C11.5156 10.7144 10.7144 11.5156 10.7144 12.5001C10.7144 13.4846 11.5156 14.2858 12.5001 14.2858C13.4846 14.2858 14.2858 13.4846 14.2858 12.5001C14.2858 11.5156 13.4846 10.7144 12.5001 10.7144Z" fill="white"/>
<path d="M15.14 7.14307H9.86021C8.36056 7.14307 7.14294 8.36068 7.14294 9.86033V15.1401C7.14294 16.6397 8.36056 17.8574 9.86021 17.8574H15.14C16.6396 17.8574 17.8572 16.6397 17.8572 15.1401V9.86033C17.8572 8.36068 16.6396 7.14307 15.14 7.14307ZM12.5912 15.6491C10.8027 15.6491 9.34771 14.1942 9.34771 12.4056C9.34771 10.617 10.8027 9.1621 12.5912 9.1621C14.3798 9.1621 15.8348 10.617 15.8348 12.4056C15.8348 14.1942 14.3798 15.6491 12.5912 15.6491ZM16.0239 9.71587C15.5974 9.71587 15.2535 9.36847 15.2535 8.94541C15.2535 8.52234 15.5974 8.17494 16.0239 8.17494C16.4504 8.17494 16.7944 8.52234 16.7944 8.94541C16.7944 9.36847 16.4504 9.71587 16.0239 9.71587Z" fill="white"/>
</svg>
